<svg width="1220" height="172" viewBox="0 0 1220 172" fill="none" xmlns="http://www.w3.org/2000/svg">
<rect width="1220" height="172" fill="white"/>
<g clip-path="url(#clip0_46_275)">
<path d="M1144.54 147.82L1137.82 116.426C1137.46 114.553 1136.86 111.797 1136.02 108.157C1135.19 104.463 1134.28 100.529 1133.29 96.3538C1132.35 92.1251 1131.47 88.2177 1130.63 84.6314C1129.85 81.0451 1129.28 78.4222 1128.91 76.7628H1128.21C1127.84 78.4222 1127.27 81.0451 1126.49 84.6314C1125.7 88.2177 1124.82 92.1251 1123.84 96.3538C1122.89 100.582 1122.01 104.57 1121.17 108.317C1120.34 112.01 1119.72 114.821 1119.3 116.748L1112.27 147.82H1086.64L1061.79 58.0552H1085.55L1095.63 97.799C1096.31 100.582 1096.95 103.901 1097.58 107.755C1098.21 111.556 1098.75 115.249 1099.22 118.835C1099.74 122.368 1100.13 125.178 1100.39 127.265H1101.02C1101.12 125.713 1101.33 123.653 1101.64 121.083C1102.01 118.514 1102.4 115.864 1102.81 113.135C1103.28 110.351 1103.7 107.862 1104.07 105.668C1104.48 103.419 1104.8 101.894 1105 101.091L1115.79 58.0552H1142.04L1152.28 101.091C1152.64 102.643 1153.11 105.105 1153.69 108.478C1154.31 111.85 1154.86 115.329 1155.32 118.915C1155.79 122.449 1156.05 125.232 1156.1 127.265H1156.73C1156.94 125.446 1157.3 122.743 1157.82 119.156C1158.34 115.57 1158.94 111.823 1159.62 107.916C1160.35 103.955 1161.08 100.582 1161.81 97.799L1172.28 58.0552H1195.64L1170.48 147.82H1144.54Z" fill="#262626"/>
<path d="M1053.04 102.773C1053.04 110.266 1052.05 116.904 1050.07 122.685C1048.15 128.466 1045.3 133.364 1041.56 137.378C1037.85 141.339 1033.38 144.336 1028.12 146.37C1022.9 148.405 1017.02 149.422 1010.46 149.422C1004.31 149.422 998.661 148.405 993.498 146.37C988.392 144.336 983.942 141.339 980.139 137.378C976.385 133.364 973.476 128.466 971.386 122.685C969.353 116.904 968.337 110.266 968.337 102.773C968.337 92.8167 970.058 84.3861 973.5 77.4812C976.934 70.5762 981.835 65.3305 988.187 61.7442C994.539 58.1579 1002.12 56.3647 1010.92 56.3647C1019.1 56.3647 1026.35 58.1579 1032.65 61.7442C1039 65.3305 1043.98 70.5762 1047.57 77.4812C1051.22 84.3861 1053.04 92.8167 1053.04 102.773ZM992.637 102.773C992.637 108.661 993.269 113.612 994.514 117.626C995.768 121.641 997.719 124.666 1000.37 126.699C1003.03 128.733 1006.5 129.75 1010.77 129.75C1014.99 129.75 1018.4 128.733 1021 126.699C1023.66 124.666 1025.59 121.641 1026.79 117.626C1028.04 113.612 1028.67 108.661 1028.67 102.773C1028.67 96.8312 1028.04 91.9068 1026.79 87.9992C1025.59 84.0382 1023.66 81.0675 1021 79.087C1018.35 77.1064 1014.88 76.1162 1010.61 76.1162C1004.31 76.1162 999.727 78.3376 996.858 82.7803C994.047 87.2231 992.637 93.8872 992.637 102.773Z" fill="#262626"/>
<path d="M892.313 22.8838V48.3359C892.313 52.7787 892.157 57.0073 891.845 61.0218C891.583 65.0363 891.378 67.8733 891.223 69.5327H892.468C894.345 66.4281 896.558 63.9123 899.115 61.9853C901.713 60.0584 904.582 58.6399 907.704 57.73C910.835 56.82 914.195 56.3649 917.785 56.3649C924.088 56.3649 929.587 57.5158 934.275 59.8175C938.963 62.0656 942.61 65.6251 945.208 70.4961C947.815 75.3136 949.118 81.5762 949.118 89.2841V147.816H925.284V95.3862C925.284 88.9629 924.137 84.1188 921.85 80.8536C919.555 77.5885 916.015 75.9559 911.22 75.9559C906.434 75.9559 902.656 77.1067 899.894 79.4084C897.132 81.6565 895.181 85.002 894.034 89.4447C892.886 93.8339 892.313 99.2134 892.313 105.583V147.816H868.479V22.8838H892.313Z" fill="#262626"/>
<path d="M849.654 115.221C849.654 122.18 848.006 128.229 844.728 133.367C841.445 138.506 836.653 142.467 830.35 145.25C824.099 148.033 816.494 149.426 807.534 149.426C803.575 149.426 799.694 149.158 795.892 148.623C792.141 148.087 788.521 147.311 785.03 146.294C781.593 145.224 778.311 143.912 775.186 142.36V119.236C780.603 121.698 786.229 123.92 792.063 125.9C797.897 127.881 803.679 128.871 809.41 128.871C813.368 128.871 816.546 128.335 818.942 127.265C821.39 126.195 823.161 124.723 824.256 122.849C825.35 120.976 825.896 118.835 825.896 116.426C825.896 113.482 824.933 110.966 823.006 108.879C821.078 106.791 818.421 104.837 815.035 103.017C811.701 101.197 807.925 99.2437 803.705 97.1561C801.049 95.8714 798.158 94.3192 795.033 92.4993C791.907 90.6258 788.937 88.3509 786.125 85.6746C783.312 82.9982 780.994 79.7598 779.17 75.9594C777.399 72.1054 776.514 67.5022 776.514 62.1494C776.514 55.1374 778.076 49.1423 781.202 44.1643C784.327 39.1863 788.782 35.3859 794.564 32.7631C800.398 30.0867 807.274 28.7485 815.192 28.7485C821.13 28.7485 826.782 29.4711 832.147 30.9163C837.565 32.3081 843.217 34.3421 849.104 37.0184L841.29 56.3685C836.028 54.1739 831.314 52.4878 827.146 51.3102C822.979 50.079 818.734 49.4635 814.41 49.4635C811.389 49.4635 808.811 49.972 806.675 50.989C804.539 51.9525 802.924 53.3442 801.83 55.1641C800.736 56.9306 800.189 58.9913 800.189 61.3465C800.189 64.1299 800.97 66.4851 802.533 68.4121C804.148 70.2855 806.544 72.1054 809.722 73.8719C812.952 75.6382 816.963 77.6991 821.755 80.0542C827.59 82.8912 832.565 85.8619 836.68 88.9665C840.846 92.0175 844.048 95.6306 846.293 99.8058C848.531 103.927 849.654 109.066 849.654 115.221Z" fill="#262626"/>
<path d="M690.429 56.3647C698.503 56.3647 705.457 57.9705 711.292 61.1822C717.126 64.3402 721.632 68.9436 724.809 74.9922C727.987 81.0408 729.576 88.4275 729.576 97.1524V109.035H673.24C673.499 115.94 675.505 121.373 679.256 125.334C683.058 129.242 688.32 131.196 695.04 131.196C700.614 131.196 705.718 130.607 710.354 129.429C714.991 128.251 719.757 126.485 724.653 124.13V143.078C720.329 145.273 715.798 146.879 711.057 147.896C706.369 148.913 700.665 149.422 693.945 149.422C685.194 149.422 677.433 147.762 670.66 144.444C663.941 141.125 658.654 136.067 654.799 129.268C650.996 122.471 649.095 113.906 649.095 103.576C649.095 93.0843 650.814 84.3594 654.252 77.4009C657.742 70.3888 662.587 65.1432 668.785 61.6639C674.984 58.1311 682.199 56.3647 690.429 56.3647ZM690.586 73.7878C685.95 73.7878 682.094 75.3133 679.022 78.3643C676 81.4154 674.255 86.2061 673.786 92.7364H707.228C707.177 89.0966 706.525 85.8582 705.275 83.0212C704.077 80.1843 702.254 77.9362 699.805 76.2768C697.41 74.6175 694.336 73.7878 690.586 73.7878Z" fill="#262626"/>
<path d="M630.499 56.3647C631.697 56.3647 633.077 56.445 634.64 56.6056C636.254 56.7127 637.557 56.8732 638.547 57.0874L636.749 80.0505C635.968 79.7829 634.848 79.5955 633.39 79.4884C631.984 79.3278 630.759 79.2476 629.717 79.2476C626.644 79.2476 623.648 79.649 620.732 80.4519C617.866 81.2548 615.288 82.5662 612.996 84.3861C610.704 86.1526 608.88 88.5077 607.527 91.4517C606.224 94.3422 605.573 97.9017 605.573 102.13V147.815H581.742V58.0509H599.791L603.307 73.1455H604.479C606.198 70.0944 608.334 67.3111 610.886 64.7953C613.491 62.226 616.434 60.1919 619.716 58.6932C623.049 57.1409 626.644 56.3647 630.499 56.3647Z" fill="#262626"/>
<path d="M520.794 56.2046C532.514 56.2046 541.5 58.8274 547.751 64.0731C554.002 69.3187 557.127 77.2943 557.127 87.9996V147.816H540.484L535.874 135.612H535.249C532.749 138.824 530.196 141.446 527.592 143.481C524.987 145.515 521.992 147.013 518.606 147.977C515.22 148.941 511.105 149.422 506.26 149.422C501.103 149.422 496.467 148.405 492.352 146.371C488.289 144.337 485.085 141.232 482.741 137.058C480.397 132.828 479.225 127.476 479.225 120.999C479.225 111.471 482.481 104.46 488.992 99.963C495.504 95.4132 505.271 92.8974 518.293 92.4156L533.452 91.9339V87.9996C533.452 83.2893 532.254 79.8368 529.857 77.6422C527.462 75.4475 524.128 74.3503 519.856 74.3503C515.637 74.3503 511.496 74.9658 507.432 76.1969C503.369 77.428 499.306 78.9803 495.243 80.8538L487.351 64.3139C491.987 61.7981 497.17 59.8176 502.901 58.3724C508.683 56.9272 514.647 56.2046 520.794 56.2046ZM533.452 106.226L524.232 106.547C516.522 106.761 511.157 108.18 508.135 110.802C505.167 113.425 503.682 116.878 503.682 121.159C503.682 124.906 504.75 127.583 506.885 129.189C509.021 130.741 511.808 131.517 515.246 131.517C520.351 131.517 524.648 129.965 528.139 126.86C531.681 123.756 533.452 119.34 533.452 113.613V106.226Z" fill="#262626"/>
<path d="M419.763 147.814L413.043 116.42C412.679 114.546 412.08 111.79 411.247 108.15C410.413 104.456 409.501 100.523 408.512 96.3474C407.574 92.1188 406.688 88.2113 405.855 84.6249C405.074 81.0387 404.501 78.4159 404.136 76.7565H403.433C403.068 78.4159 402.495 81.0387 401.713 84.6249C400.932 88.2113 400.047 92.1188 399.057 96.3474C398.12 100.576 397.234 104.564 396.4 108.311C395.567 112.004 394.942 114.814 394.525 116.741L387.493 147.814H361.864L337.017 58.0488H360.771L370.85 97.7927C371.527 100.576 372.178 103.895 372.804 107.749C373.428 111.549 373.976 115.242 374.444 118.829C374.965 122.362 375.356 125.172 375.616 127.26H376.241C376.345 125.707 376.554 123.646 376.866 121.077C377.231 118.507 377.622 115.858 378.038 113.128C378.507 110.345 378.924 107.856 379.289 105.661C379.705 103.413 380.018 101.887 380.227 101.085L391.009 58.0488H417.263L427.499 101.085C427.864 102.637 428.333 105.099 428.906 108.472C429.531 111.843 430.077 115.322 430.546 118.909C431.015 122.442 431.276 125.225 431.327 127.26H431.953C432.161 125.439 432.526 122.736 433.047 119.15C433.567 115.563 434.166 111.817 434.844 107.909C435.573 103.948 436.302 100.576 437.032 97.7927L447.502 58.0488H470.865L445.705 147.814H419.763Z" fill="#262626"/>
<path d="M315.217 129.912C317.821 129.912 320.347 129.644 322.795 129.109C325.296 128.573 327.77 127.905 330.218 127.101V145.327C327.666 146.505 324.489 147.469 320.686 148.218C316.935 149.021 312.82 149.422 308.34 149.422C303.131 149.422 298.443 148.565 294.275 146.853C290.16 145.086 286.905 142.062 284.509 137.78C282.165 133.444 280.993 127.423 280.993 119.715V76.4381H269.584V66.0806L282.711 57.8909L289.587 38.9424H304.824V58.0516H329.281V76.4381H304.824V119.715C304.824 123.14 305.762 125.71 307.637 127.423C309.565 129.082 312.091 129.912 315.217 129.912Z" fill="#262626"/>
<path d="M264.662 76.437H244.034V147.815H220.202V76.437H207.075V64.6343L220.202 58.0505V51.4666C220.202 43.8123 221.452 37.8708 223.952 33.6421C226.504 29.36 230.073 26.3625 234.657 24.6496C239.293 22.8832 244.763 22 251.066 22C255.702 22 259.921 22.4015 263.724 23.2044C267.527 23.9537 270.626 24.8102 273.022 25.7737L266.928 43.7588C265.104 43.1699 263.125 42.6347 260.989 42.1529C258.853 41.6712 256.405 41.4304 253.644 41.4304C250.31 41.4304 247.862 42.4741 246.299 44.5617C244.788 46.5957 244.034 49.2185 244.034 52.4301V58.0505H264.662V76.437Z" fill="#262626"/>
<path d="M196.682 102.773C196.682 110.266 195.692 116.904 193.713 122.685C191.785 128.466 188.946 133.364 185.196 137.378C181.497 141.339 177.017 144.336 171.756 146.37C166.547 148.405 160.661 149.422 154.098 149.422C147.951 149.422 142.299 148.405 137.141 146.37C132.037 144.336 127.583 141.339 123.781 137.378C120.029 133.364 117.113 128.466 115.029 122.685C112.997 116.904 111.982 110.266 111.982 102.773C111.982 92.8167 113.701 84.3861 117.139 77.4812C120.577 70.5762 125.473 65.3305 131.828 61.7442C138.183 58.1579 145.763 56.3647 154.567 56.3647C162.744 56.3647 169.985 58.1579 176.288 61.7442C182.644 65.3305 187.618 70.5762 191.212 77.4812C194.859 84.3861 196.682 92.8167 196.682 102.773ZM136.282 102.773C136.282 108.661 136.907 113.612 138.158 117.626C139.408 121.641 141.361 124.666 144.018 126.699C146.675 128.733 150.138 129.75 154.41 129.75C158.629 129.75 162.041 128.733 164.646 126.699C167.303 124.666 169.23 121.641 170.428 117.626C171.679 113.612 172.303 108.661 172.303 102.773C172.303 96.8312 171.679 91.9068 170.428 87.9992C169.23 84.0382 167.303 81.0675 164.646 79.087C161.989 77.1064 158.525 76.1162 154.253 76.1162C147.951 76.1162 143.367 78.3376 140.502 82.7803C137.689 87.2231 136.282 93.8872 136.282 102.773Z" fill="#262626"/>
<path d="M98.4644 115.215C98.4644 122.174 96.8236 128.222 93.5418 133.361C90.26 138.499 85.4676 142.46 79.1646 145.244C72.9137 148.028 65.3083 149.419 56.3487 149.419C52.3897 149.419 48.5089 149.151 44.7063 148.616C40.9557 148.081 37.3354 147.305 33.8452 146.288C30.4072 145.217 27.1255 143.906 24 142.354V119.23C29.4175 121.692 35.0434 123.913 40.8775 125.894C46.7118 127.874 52.4939 128.865 58.224 128.865C62.1829 128.865 65.3605 128.329 67.7567 127.259C70.2049 126.188 71.976 124.716 73.0699 122.843C74.1639 120.969 74.7108 118.828 74.7108 116.42C74.7108 113.476 73.7471 110.96 71.8197 108.872C69.8924 106.785 67.2357 104.831 63.8498 103.011C60.516 101.191 56.7394 99.2374 52.5199 97.1498C49.8633 95.8651 46.9723 94.3128 43.8468 92.493C40.7213 90.6195 37.7521 88.3446 34.9392 85.6682C32.1262 82.9919 29.8082 79.7535 27.985 75.9531C26.2139 72.0991 25.3283 67.4958 25.3283 62.1431C25.3283 55.1311 26.8911 49.136 30.0165 44.158C33.142 39.18 37.5959 35.3795 43.3779 32.7567C49.2122 30.0804 56.0882 28.7422 64.0061 28.7422C69.9444 28.7422 75.5964 29.4648 80.9617 30.91C86.3792 32.3017 92.0312 34.3358 97.9175 37.0121L90.1037 56.3622C84.8425 54.1676 80.1283 52.4815 75.961 51.3039C71.7937 50.0727 67.5482 49.4572 63.2247 49.4572C60.2034 49.4572 57.6249 49.9657 55.4892 50.9827C53.3534 51.9462 51.7386 53.3379 50.6446 55.1578C49.5507 56.9242 49.0038 58.985 49.0038 61.3402C49.0038 64.1236 49.7851 66.4788 51.3479 68.4057C52.9627 70.2792 55.3589 72.0991 58.5365 73.8655C61.7662 75.6319 65.7772 77.6927 70.5695 80.0479C76.4038 82.8849 81.3785 85.8556 85.4937 88.9602C89.661 92.0112 92.8646 95.6242 95.1046 99.7994C97.3445 103.921 98.4644 109.06 98.4644 115.215Z" fill="#262626"/>
</g>
<defs>
<clipPath id="clip0_46_275">
<rect width="1172" height="127.855" fill="white" transform="translate(24 22)"/>
</clipPath>
</defs>
</svg>
