<svg width="1433" height="320" viewBox="0 0 1433 320" fill="none" xmlns="http://www.w3.org/2000/svg">
<path d="M1404.31 295.102L1394.75 263.013C1394.33 261.638 1393.92 260.297 1393.53 258.989C1393.17 257.648 1392.83 256.374 1392.5 255.166C1392.21 253.926 1391.93 252.786 1391.67 251.746C1391.44 250.673 1391.24 249.751 1391.08 248.98H1390.74C1390.61 249.751 1390.43 250.673 1390.2 251.746C1389.97 252.786 1389.69 253.926 1389.36 255.166C1389.07 256.407 1388.74 257.715 1388.38 259.09C1388.03 260.431 1387.62 261.789 1387.16 263.164L1377.17 295.102H1368L1353.21 239.977H1361.64L1369.38 270.406C1369.9 272.418 1370.39 274.414 1370.85 276.392C1371.34 278.337 1371.74 280.181 1372.07 281.925C1372.43 283.635 1372.69 285.127 1372.85 286.401H1373.25C1373.44 285.563 1373.66 284.557 1373.88 283.383C1374.14 282.21 1374.42 280.969 1374.72 279.661C1375.04 278.32 1375.39 276.995 1375.75 275.688C1376.1 274.346 1376.46 273.089 1376.82 271.915L1386.72 239.977H1395.49L1405.04 271.865C1405.53 273.475 1406 275.151 1406.46 276.895C1406.95 278.638 1407.39 280.332 1407.78 281.975C1408.18 283.584 1408.45 285.026 1408.62 286.3H1409.01C1409.14 285.16 1409.39 283.752 1409.74 282.075C1410.1 280.399 1410.51 278.555 1410.97 276.543C1411.46 274.531 1411.97 272.485 1412.49 270.406L1420.33 239.977H1428.61L1413.76 295.102H1404.31Z" fill="#333333"/>
<path d="M1345.54 267.539C1345.54 272.065 1344.97 276.106 1343.83 279.66C1342.69 283.215 1341.04 286.216 1338.88 288.664C1336.73 291.111 1334.11 292.989 1331.04 294.297C1328.01 295.571 1324.56 296.208 1320.71 296.208C1317.11 296.208 1313.81 295.571 1310.81 294.297C1307.84 292.989 1305.26 291.111 1303.07 288.664C1300.91 286.216 1299.23 283.215 1298.02 279.66C1296.85 276.106 1296.26 272.065 1296.26 267.539C1296.26 261.503 1297.26 256.373 1299.25 252.148C1301.24 247.889 1304.08 244.653 1307.77 242.44C1311.5 240.194 1315.92 239.07 1321.05 239.07C1325.95 239.07 1330.23 240.194 1333.88 242.44C1337.57 244.687 1340.43 247.939 1342.46 252.198C1344.51 256.423 1345.54 261.536 1345.54 267.539ZM1304.69 267.539C1304.69 271.965 1305.26 275.804 1306.4 279.057C1307.54 282.309 1309.31 284.824 1311.69 286.601C1314.08 288.379 1317.15 289.267 1320.9 289.267C1324.62 289.267 1327.68 288.379 1330.06 286.601C1332.48 284.824 1334.26 282.309 1335.4 279.057C1336.55 275.804 1337.12 271.965 1337.12 267.539C1337.12 263.146 1336.55 259.357 1335.4 256.171C1334.26 252.952 1332.5 250.471 1330.11 248.727C1327.73 246.984 1324.64 246.112 1320.85 246.112C1315.27 246.112 1311.17 248.006 1308.56 251.796C1305.98 255.585 1304.69 260.832 1304.69 267.539Z" fill="#333333"/>
<path d="M1244.85 216.938V240.326C1244.85 241.667 1244.81 243.025 1244.75 244.4C1244.68 245.741 1244.57 246.982 1244.41 248.122H1244.94C1246.05 246.177 1247.46 244.551 1249.16 243.243C1250.89 241.902 1252.85 240.896 1255.04 240.225C1257.22 239.521 1259.54 239.169 1261.99 239.169C1266.3 239.169 1269.9 239.873 1272.77 241.281C1275.68 242.69 1277.85 244.869 1279.29 247.82C1280.76 250.771 1281.49 254.593 1281.49 259.288V295.2H1273.46V259.841C1273.46 255.247 1272.43 251.81 1270.37 249.53C1268.35 247.25 1265.23 246.11 1261.01 246.11C1257.03 246.11 1253.84 246.898 1251.46 248.474C1249.11 250.016 1247.41 252.297 1246.36 255.314C1245.35 258.332 1244.85 262.021 1244.85 266.38V295.2H1236.71V216.938H1244.85Z" fill="#333333"/>
<path d="M1222.29 275.635C1222.29 279.994 1221.23 283.716 1219.1 286.801C1217.01 289.852 1214.07 292.183 1210.29 293.792C1206.5 295.402 1202.04 296.206 1196.91 296.206C1194.2 296.206 1191.64 296.072 1189.22 295.804C1186.8 295.536 1184.58 295.15 1182.56 294.647C1180.53 294.144 1178.75 293.524 1177.22 292.786V284.588C1179.67 285.627 1182.65 286.6 1186.18 287.505C1189.71 288.377 1193.4 288.813 1197.25 288.813C1200.85 288.813 1203.88 288.326 1206.37 287.354C1208.85 286.348 1210.73 284.923 1212 283.079C1213.31 281.201 1213.96 278.954 1213.96 276.339C1213.96 273.824 1213.42 271.728 1212.34 270.052C1211.26 268.342 1209.47 266.799 1206.95 265.424C1204.47 264.016 1201.07 262.524 1196.76 260.948C1193.73 259.841 1191.05 258.634 1188.73 257.326C1186.41 255.985 1184.47 254.476 1182.9 252.8C1181.33 251.123 1180.14 249.178 1179.32 246.965C1178.54 244.752 1178.15 242.22 1178.15 239.37C1178.15 235.447 1179.11 232.094 1181.04 229.311C1183 226.494 1185.69 224.348 1189.12 222.873C1192.58 221.364 1196.55 220.609 1201.03 220.609C1204.85 220.609 1208.37 220.978 1211.61 221.716C1214.87 222.454 1217.86 223.443 1220.57 224.683L1217.98 232.027C1215.4 230.92 1212.65 229.998 1209.75 229.261C1206.87 228.523 1203.9 228.154 1200.83 228.154C1197.76 228.154 1195.16 228.623 1193.04 229.562C1190.95 230.468 1189.35 231.759 1188.24 233.435C1187.13 235.112 1186.57 237.107 1186.57 239.421C1186.57 242.003 1187.1 244.149 1188.14 245.859C1189.22 247.569 1190.92 249.094 1193.24 250.436C1195.59 251.743 1198.69 253.118 1202.54 254.56C1206.76 256.136 1210.33 257.813 1213.27 259.59C1216.21 261.334 1218.45 263.48 1219.99 266.028C1221.52 268.543 1222.29 271.745 1222.29 275.635Z" fill="#333333"/>
<path d="M1135.38 240.078V295.204H1128.72L1127.54 287.458H1127.1C1125.99 289.37 1124.55 290.979 1122.79 292.287C1121.03 293.595 1119.03 294.567 1116.81 295.204C1114.63 295.875 1112.29 296.21 1109.81 296.21C1105.56 296.21 1102 295.506 1099.13 294.098C1096.25 292.689 1094.08 290.51 1092.61 287.559C1091.18 284.608 1090.46 280.819 1090.46 276.192V240.078H1098.69V275.588C1098.69 280.182 1099.7 283.619 1101.72 285.899C1103.75 288.146 1106.84 289.269 1110.98 289.269C1114.97 289.269 1118.14 288.498 1120.49 286.955C1122.87 285.413 1124.59 283.149 1125.63 280.165C1126.68 277.147 1127.2 273.459 1127.2 269.1V240.078H1135.38Z" fill="#333333"/>
<path d="M1054.38 239.172C1060.78 239.172 1065.53 240.647 1068.63 243.598C1071.74 246.549 1073.29 251.26 1073.29 257.732V295.203H1067.36L1065.79 287.055H1065.4C1063.9 289.067 1062.33 290.76 1060.7 292.135C1059.06 293.476 1057.17 294.499 1055.01 295.203C1052.89 295.874 1050.28 296.209 1047.18 296.209C1043.91 296.209 1041 295.622 1038.46 294.449C1035.94 293.275 1033.95 291.498 1032.48 289.117C1031.04 286.736 1030.32 283.719 1030.32 280.064C1030.32 274.564 1032.45 270.339 1036.69 267.389C1040.94 264.438 1047.4 262.828 1056.09 262.56L1065.35 262.158V258.788C1065.35 254.026 1064.35 250.69 1062.36 248.779C1060.37 246.867 1057.56 245.912 1053.94 245.912C1051.13 245.912 1048.45 246.331 1045.9 247.169C1043.35 248.007 1040.94 248.997 1038.65 250.137L1036.15 243.799C1038.57 242.525 1041.35 241.435 1044.48 240.53C1047.62 239.625 1050.92 239.172 1054.38 239.172ZM1065.25 268.043L1057.07 268.395C1050.38 268.663 1045.66 269.786 1042.91 271.765C1040.17 273.743 1038.8 276.543 1038.8 280.164C1038.8 283.316 1039.73 285.647 1041.59 287.156C1043.45 288.664 1045.92 289.419 1048.99 289.419C1053.76 289.419 1057.66 288.061 1060.7 285.345C1063.73 282.629 1065.25 278.555 1065.25 273.123V268.043Z" fill="#333333"/>
<path d="M1006.69 296.208C1001.85 296.208 997.591 295.185 993.9 293.14C990.209 291.095 987.335 287.976 985.278 283.785C983.22 279.593 982.191 274.312 982.191 267.941C982.191 261.268 983.269 255.819 985.425 251.594C987.613 247.336 990.618 244.184 994.439 242.138C998.26 240.093 1002.6 239.07 1007.47 239.07C1010.15 239.07 1012.73 239.355 1015.21 239.925C1017.73 240.462 1019.78 241.149 1021.38 241.988L1018.93 248.979C1017.3 248.308 1015.41 247.705 1013.25 247.168C1011.13 246.632 1009.14 246.363 1007.27 246.363C1003.55 246.363 1000.45 247.185 997.966 248.828C995.517 250.471 993.671 252.885 992.43 256.071C991.222 259.256 990.618 263.18 990.618 267.84C990.618 272.3 991.206 276.106 992.381 279.258C993.59 282.41 995.37 284.824 997.721 286.501C1000.11 288.144 1003.08 288.965 1006.64 288.965C1009.48 288.965 1012.04 288.664 1014.33 288.06C1016.62 287.423 1018.69 286.685 1020.55 285.847V293.291C1018.75 294.23 1016.75 294.951 1014.52 295.454C1012.34 295.957 1009.72 296.208 1006.69 296.208Z" fill="#333333"/>
<path d="M948.512 239.172C954.913 239.172 959.665 240.647 962.768 243.598C965.871 246.549 967.422 251.26 967.422 257.732V295.203H961.494L959.927 287.055H959.535C958.032 289.067 956.465 290.76 954.832 292.135C953.199 293.476 951.304 294.499 949.149 295.203C947.026 295.874 944.413 296.209 941.311 296.209C938.045 296.209 935.138 295.622 932.59 294.449C930.076 293.275 928.083 291.498 926.614 289.117C925.177 286.736 924.458 283.719 924.458 280.064C924.458 274.564 926.581 270.339 930.827 267.389C935.072 264.438 941.539 262.828 950.227 262.56L959.486 262.158V258.788C959.486 254.026 958.49 250.69 956.497 248.779C954.505 246.867 951.696 245.912 948.071 245.912C945.262 245.912 942.584 246.331 940.037 247.169C937.489 248.007 935.072 248.997 932.786 250.137L930.288 243.799C932.705 242.525 935.481 241.435 938.616 240.53C941.751 239.625 945.05 239.172 948.512 239.172ZM959.388 268.043L951.207 268.395C944.511 268.663 939.792 269.786 937.048 271.765C934.305 273.743 932.933 276.543 932.933 280.164C932.933 283.316 933.864 285.647 935.726 287.156C937.587 288.664 940.053 289.419 943.123 289.419C947.892 289.419 951.794 288.061 954.832 285.345C957.869 282.629 959.388 278.555 959.388 273.123V268.043Z" fill="#333333"/>
<path d="M896.069 228.154C892.117 228.154 888.558 228.858 885.39 230.266C882.254 231.641 879.576 233.653 877.355 236.302C875.167 238.918 873.485 242.086 872.309 245.808C871.133 249.53 870.546 253.722 870.546 258.383C870.546 264.553 871.476 269.918 873.338 274.478C875.232 279.005 878.041 282.509 881.764 284.99C885.52 287.471 890.207 288.712 895.824 288.712C899.025 288.712 902.03 288.444 904.838 287.907C907.68 287.337 910.44 286.633 913.118 285.795V293.239C910.505 294.245 907.762 294.982 904.887 295.452C902.013 295.955 898.6 296.206 894.649 296.206C887.365 296.206 881.274 294.664 876.375 291.579C871.509 288.461 867.851 284.068 865.402 278.401C862.985 272.734 861.776 266.045 861.776 258.332C861.776 252.766 862.528 247.686 864.03 243.092C865.565 238.465 867.786 234.475 870.693 231.122C873.632 227.768 877.225 225.186 881.47 223.376C885.749 221.531 890.648 220.609 896.167 220.609C899.793 220.609 903.287 220.978 906.651 221.716C910.015 222.454 913.052 223.51 915.763 224.885L912.432 232.127C910.146 231.054 907.631 230.132 904.887 229.361C902.177 228.556 899.237 228.154 896.069 228.154Z" fill="#333333"/>
<path d="M777.418 240.078H786.138L797.994 272.067C798.68 273.945 799.316 275.756 799.904 277.499C800.492 279.209 801.015 280.853 801.472 282.429C801.929 284.005 802.289 285.53 802.55 287.006H802.893C803.35 285.329 804.003 283.133 804.852 280.417C805.701 277.667 806.616 274.867 807.596 272.017L818.814 240.078H827.584L804.215 303.302C802.974 306.689 801.521 309.639 799.855 312.154C798.222 314.669 796.23 316.597 793.879 317.938C791.527 319.313 788.686 320.001 785.354 320.001C783.819 320.001 782.464 319.9 781.288 319.699C780.112 319.531 779.1 319.33 778.251 319.095V312.406C778.969 312.573 779.835 312.724 780.847 312.858C781.892 312.993 782.97 313.06 784.081 313.06C786.106 313.06 787.853 312.657 789.323 311.853C790.825 311.081 792.115 309.941 793.193 308.432C794.27 306.923 795.201 305.129 795.985 303.05L798.925 295.305L777.418 240.078Z" fill="#333333"/>
<path d="M731.588 216.938V236.503C731.588 238.75 731.523 240.929 731.392 243.042C731.294 245.154 731.213 246.797 731.147 247.971H731.588C733.058 245.49 735.181 243.394 737.957 241.684C740.733 239.974 744.277 239.119 748.588 239.119C755.316 239.119 760.672 241.516 764.657 246.311C768.674 251.073 770.682 258.165 770.682 267.587C770.682 273.79 769.768 279.021 767.939 283.28C766.11 287.538 763.53 290.757 760.199 292.937C756.867 295.116 752.932 296.206 748.392 296.206C744.146 296.206 740.652 295.401 737.908 293.792C735.197 292.149 733.107 290.154 731.637 287.807H731.001L729.335 295.2H723.456V216.938H731.588ZM747.265 246.11C743.379 246.11 740.292 246.898 738.006 248.474C735.72 250.016 734.071 252.364 733.058 255.516C732.078 258.634 731.588 262.591 731.588 267.386V267.838C731.588 274.78 732.715 280.094 734.969 283.783C737.222 287.438 741.321 289.265 747.265 289.265C752.262 289.265 756.002 287.387 758.484 283.632C760.999 279.876 762.256 274.511 762.256 267.537C762.256 260.428 761.015 255.08 758.533 251.492C756.083 247.904 752.327 246.11 747.265 246.11Z" fill="#333333"/>
<path d="M1367.21 153.518L1359.01 115.213C1358.57 112.927 1357.84 109.564 1356.82 105.123C1355.8 100.616 1354.69 95.8159 1353.48 90.7217C1352.34 85.5622 1351.26 80.7946 1350.24 76.4188C1349.29 72.043 1348.59 68.8428 1348.14 66.8181H1347.29C1346.84 68.8428 1346.14 72.043 1345.19 76.4188C1344.23 80.7946 1343.15 85.5622 1341.95 90.7217C1340.8 95.8812 1339.72 100.747 1338.7 105.319C1337.69 109.825 1336.93 113.254 1336.42 115.605L1327.84 153.518H1296.57L1266.25 43.9922H1295.23L1307.53 92.4851C1308.36 95.8812 1309.15 99.9305 1309.91 104.633C1310.68 109.27 1311.34 113.776 1311.91 118.152C1312.55 122.463 1313.03 125.891 1313.34 128.438H1314.11C1314.23 126.544 1314.49 124.03 1314.87 120.895C1315.32 117.76 1315.79 114.527 1316.3 111.197C1316.87 107.8 1317.38 104.763 1317.83 102.086C1318.33 99.3427 1318.72 97.4813 1318.97 96.5017L1332.13 43.9922H1364.16L1376.65 96.5017C1377.09 98.3957 1377.67 101.4 1378.37 105.515C1379.13 109.629 1379.8 113.874 1380.37 118.25C1380.94 122.561 1381.26 125.957 1381.32 128.438H1382.08C1382.34 126.218 1382.78 122.92 1383.42 118.544C1384.05 114.168 1384.78 109.596 1385.61 104.829C1386.5 99.9958 1387.39 95.8812 1388.28 92.4851L1401.06 43.9922H1429.56L1398.86 153.518H1367.21Z" fill="#333333"/>
<path d="M1255.57 98.5538C1255.57 107.697 1254.36 115.796 1251.95 122.849C1249.6 129.903 1246.13 135.879 1241.56 140.777C1237.04 145.61 1231.58 149.267 1225.16 151.749C1218.8 154.231 1211.62 155.472 1203.61 155.472C1196.11 155.472 1189.22 154.231 1182.92 151.749C1176.69 149.267 1171.26 145.61 1166.62 140.777C1162.04 135.879 1158.49 129.903 1155.94 122.849C1153.46 115.796 1152.22 107.697 1152.22 98.5538C1152.22 86.406 1154.32 76.1196 1158.52 67.6946C1162.71 59.2696 1168.69 52.8692 1176.44 48.4934C1184.19 44.1176 1193.44 41.9297 1204.18 41.9297C1214.16 41.9297 1223 44.1176 1230.69 48.4934C1238.44 52.8692 1244.51 59.2696 1248.9 67.6946C1253.35 76.1196 1255.57 86.406 1255.57 98.5538ZM1181.87 98.5538C1181.87 105.738 1182.64 111.779 1184.16 116.677C1185.69 121.576 1188.07 125.266 1191.31 127.747C1194.55 130.229 1198.78 131.47 1203.99 131.47C1209.14 131.47 1213.3 130.229 1216.48 127.747C1219.72 125.266 1222.08 121.576 1223.54 116.677C1225.06 111.779 1225.83 105.738 1225.83 98.5538C1225.83 91.3043 1225.06 85.2958 1223.54 80.5281C1222.08 75.6951 1219.72 72.0704 1216.48 69.6539C1213.24 67.2374 1209.01 66.0292 1203.8 66.0292C1196.11 66.0292 1190.52 68.7396 1187.02 74.1603C1183.59 79.5811 1181.87 87.7122 1181.87 98.5538Z" fill="#333333"/>
<path d="M1059.46 1.07812V32.1332C1059.46 37.554 1059.27 42.7135 1058.89 47.6117C1058.57 52.51 1058.32 55.9715 1058.13 57.9961H1059.65C1061.94 54.2081 1064.64 51.1385 1067.76 48.7873C1070.93 46.4362 1074.43 44.7054 1078.24 43.5952C1082.06 42.4849 1086.16 41.9297 1090.54 41.9297C1098.23 41.9297 1104.94 43.3339 1110.66 46.1423C1116.38 48.8853 1120.83 53.2284 1124 59.1717C1127.18 65.0496 1128.77 72.6909 1128.77 82.0956V153.512H1099.69V89.541C1099.69 81.7037 1098.29 75.7932 1095.5 71.8092C1092.7 67.8253 1088.38 65.8333 1082.53 65.8333C1076.69 65.8333 1072.08 67.2375 1068.71 70.0459C1065.34 72.7889 1062.96 76.8708 1061.56 82.2915C1060.16 87.647 1059.46 94.2107 1059.46 101.983V153.512H1030.38V1.07812H1059.46Z" fill="#333333"/>
<path d="M1007.41 113.743C1007.41 122.234 1005.4 129.614 1001.4 135.883C997.395 142.153 991.548 146.986 983.857 150.382C976.23 153.778 966.951 155.477 956.019 155.477C951.188 155.477 946.453 155.15 941.813 154.497C937.237 153.844 932.82 152.897 928.561 151.656C924.367 150.35 920.362 148.75 916.549 146.856V118.642C923.159 121.646 930.023 124.356 937.142 126.773C944.26 129.189 951.315 130.397 958.307 130.397C963.137 130.397 967.014 129.744 969.938 128.438C972.925 127.132 975.086 125.336 976.421 123.05C977.756 120.764 978.423 118.152 978.423 115.213C978.423 111.621 977.247 108.551 974.896 106.004C972.544 103.457 969.302 101.073 965.171 98.8525C961.103 96.6319 956.495 94.2481 951.347 91.701C948.106 90.1335 944.578 88.2395 940.765 86.019C936.951 83.7331 933.328 80.9574 929.896 77.6919C926.464 74.4264 923.636 70.4751 921.411 65.8381C919.25 61.1357 918.17 55.5191 918.17 48.988C918.17 40.4324 920.076 33.1176 923.89 27.0437C927.703 20.9699 933.138 16.3329 940.193 13.1327C947.311 9.86713 955.701 8.23438 965.362 8.23438C972.607 8.23438 979.504 9.11606 986.05 10.8794C992.66 12.5775 999.556 15.0593 1006.74 18.3248L997.205 41.9345C990.785 39.2568 985.033 37.1995 979.948 35.7627C974.864 34.2605 969.684 33.5095 964.408 33.5095C960.722 33.5095 957.576 34.1299 954.97 35.3708C952.364 36.5464 950.394 38.2445 949.059 40.465C947.724 42.6203 947.057 45.1347 947.057 48.0084C947.057 51.4045 948.01 54.2782 949.917 56.6293C951.887 58.9152 954.811 61.1357 958.688 63.291C962.629 65.4462 967.523 67.9607 973.37 70.8343C980.489 74.2958 986.559 77.9205 991.58 81.7085C996.664 85.4312 1000.57 89.8396 1003.31 94.9339C1006.04 99.9628 1007.41 106.233 1007.41 113.743Z" fill="#333333"/>
<path d="M813.135 41.9297C822.986 41.9297 831.471 43.889 838.59 47.8076C845.709 51.6609 851.206 57.2776 855.083 64.6577C858.96 72.0378 860.899 81.0506 860.899 91.6962V106.195H792.161C792.478 114.62 794.925 121.249 799.502 126.082C804.141 130.85 810.561 133.234 818.76 133.234C825.561 133.234 831.789 132.515 837.446 131.078C843.103 129.641 848.918 127.486 854.893 124.613V147.732C849.617 150.41 844.088 152.369 838.304 153.61C832.584 154.851 825.624 155.472 817.425 155.472C806.747 155.472 797.277 153.447 789.014 149.398C780.815 145.349 774.364 139.177 769.661 130.882C765.021 122.588 762.701 112.138 762.701 99.5334C762.701 86.7326 764.799 76.087 768.993 67.5967C773.252 59.041 779.163 52.6406 786.726 48.3954C794.29 44.0849 803.093 41.9297 813.135 41.9297ZM813.326 63.1882C807.669 63.1882 802.965 65.0495 799.216 68.7722C795.529 72.4949 793.4 78.3402 792.828 86.3081H833.632C833.569 81.867 832.774 77.9157 831.249 74.4542C829.787 70.9928 827.563 68.2498 824.575 66.2251C821.652 64.2005 817.902 63.1882 813.326 63.1882Z" fill="#333333"/>
<path d="M740.011 41.9297C741.473 41.9297 743.157 42.0276 745.064 42.2236C747.034 42.3542 748.623 42.5501 749.831 42.8114L747.638 70.8295C746.685 70.503 745.318 70.2744 743.539 70.1437C741.823 69.9478 740.329 69.8499 739.058 69.8499C735.308 69.8499 731.653 70.3397 728.094 71.3193C724.598 72.299 721.452 73.8991 718.656 76.1196C715.859 78.2749 713.634 81.1485 711.982 84.7406C710.393 88.2674 709.599 92.6105 709.599 97.77V153.512H680.521V43.987H702.544L706.834 62.4045H708.264C710.361 58.6818 712.967 55.2857 716.081 52.2161C719.259 49.0812 722.85 46.5994 726.855 44.7707C730.922 42.8767 735.308 41.9297 740.011 41.9297Z" fill="#333333"/>
<path d="M606.156 41.7344C620.457 41.7344 631.421 44.9346 639.048 51.335C646.675 57.7354 650.488 67.4667 650.488 80.5287V153.513H630.181L624.556 138.622H623.794C620.743 142.541 617.628 145.741 614.451 148.223C611.273 150.705 607.618 152.533 603.487 153.709C599.355 154.885 594.334 155.472 588.423 155.472C582.131 155.472 576.474 154.231 571.453 151.75C566.496 149.268 562.587 145.48 559.727 140.386C556.867 135.226 555.437 128.695 555.437 120.793C555.437 109.167 559.409 100.612 567.354 95.1256C575.299 89.5742 587.216 86.5046 603.105 85.9168L621.601 85.329V80.5287C621.601 74.7814 620.139 70.5689 617.215 67.8912C614.292 65.2134 610.224 63.8746 605.012 63.8746C599.864 63.8746 594.811 64.6257 589.853 66.1278C584.896 67.6299 579.938 69.5239 574.981 71.8098L565.352 51.6289C571.008 48.5593 577.332 46.1428 584.324 44.3794C591.379 42.6161 598.656 41.7344 606.156 41.7344ZM621.601 102.767L610.351 103.159C600.944 103.42 594.398 105.151 590.711 108.351C587.089 111.551 585.277 115.764 585.277 120.988C585.277 125.56 586.58 128.826 589.186 130.785C591.792 132.679 595.192 133.626 599.387 133.626C605.616 133.626 610.859 131.732 615.118 127.944C619.44 124.156 621.601 118.768 621.601 111.78V102.767Z" fill="#333333"/>
<path d="M482.885 153.51L474.686 115.205C474.241 112.919 473.511 109.556 472.494 105.115C471.477 100.608 470.364 95.8081 469.157 90.7139C468.013 85.5544 466.932 80.7867 465.915 76.4109C464.962 72.0352 464.263 68.835 463.818 66.8103H462.96C462.515 68.835 461.816 72.0352 460.862 76.4109C459.909 80.7867 458.829 85.5544 457.621 90.7139C456.477 95.8734 455.396 100.739 454.379 105.311C453.363 109.817 452.6 113.246 452.091 115.597L443.511 153.51H412.24L381.923 43.9844H410.906L423.204 92.4773C424.03 95.8734 424.825 99.9227 425.588 104.625C426.35 109.262 427.018 113.768 427.59 118.144C428.225 122.455 428.702 125.884 429.02 128.431H429.782C429.909 126.537 430.164 124.022 430.545 120.887C430.99 117.752 431.467 114.52 431.975 111.189C432.547 107.793 433.056 104.756 433.501 102.078C434.009 99.3349 434.39 97.4735 434.645 96.4939L447.801 43.9844H479.835L492.324 96.4939C492.769 98.3879 493.341 101.392 494.04 105.507C494.803 109.621 495.47 113.866 496.042 118.242C496.614 122.553 496.932 125.949 496.995 128.431H497.758C498.012 126.21 498.457 122.912 499.093 118.536C499.728 114.16 500.459 109.589 501.286 104.821C502.175 99.988 503.065 95.8734 503.955 92.4773L516.73 43.9844H545.236L514.538 153.51H482.885Z" fill="#333333"/>
<path d="M355.324 131.667C358.502 131.667 361.584 131.34 364.571 130.687C367.622 130.034 370.641 129.218 373.628 128.238V150.476C370.514 151.913 366.637 153.089 361.997 154.003C357.421 154.983 352.4 155.472 346.934 155.472C340.578 155.472 334.858 154.427 329.773 152.338C324.752 150.182 320.78 146.492 317.856 141.267C314.996 135.977 313.566 128.63 313.566 119.225V66.4218H299.646V53.7842L315.663 43.7917L324.053 20.6719H342.644V43.9877H372.484V66.4218H342.644V119.225C342.644 123.405 343.788 126.54 346.076 128.63C348.428 130.654 351.51 131.667 355.324 131.667Z" fill="#333333"/>
<path d="M293.64 66.4206H268.471V153.512H239.393V66.4206H223.376V52.0197L239.393 43.9865V35.9533C239.393 26.614 240.918 19.3645 243.969 14.205C247.083 8.98018 251.437 5.32279 257.03 3.23286C262.687 1.07762 269.361 0 277.051 0C282.708 0 287.856 0.489828 292.496 1.46948C297.136 2.38383 300.917 3.4288 303.841 4.60438L296.405 26.5487C294.18 25.8302 291.765 25.1771 289.159 24.5893C286.553 24.0015 283.566 23.7077 280.197 23.7077C276.129 23.7077 273.142 24.9812 271.235 27.5283C269.392 30.0101 268.471 33.2103 268.471 37.1289V43.9865H293.64V66.4206Z" fill="#333333"/>
<path d="M210.696 98.5538C210.696 107.697 209.488 115.796 207.073 122.849C204.721 129.903 201.257 135.879 196.681 140.777C192.168 145.61 186.702 149.267 180.283 151.749C173.927 154.231 166.745 155.472 158.737 155.472C151.237 155.472 144.341 154.231 138.048 151.749C131.82 149.267 126.385 145.61 121.746 140.777C117.169 135.879 113.61 129.903 111.068 122.849C108.589 115.796 107.35 107.697 107.35 98.5538C107.35 86.406 109.447 76.1196 113.642 67.6946C117.837 59.2696 123.811 52.8692 131.565 48.4934C139.319 44.1176 148.567 41.9297 159.309 41.9297C169.287 41.9297 178.122 44.1176 185.812 48.4934C193.567 52.8692 199.636 59.2696 204.022 67.6946C208.471 76.1196 210.696 86.406 210.696 98.5538ZM137 98.5538C137 105.738 137.762 111.779 139.288 116.677C140.813 121.576 143.197 125.266 146.438 127.747C149.68 130.229 153.906 131.47 159.118 131.47C164.266 131.47 168.429 130.229 171.607 127.747C174.849 125.266 177.2 121.576 178.662 116.677C180.188 111.779 180.95 105.738 180.95 98.5538C180.95 91.3043 180.188 85.2958 178.662 80.5281C177.2 75.6951 174.849 72.0704 171.607 69.6539C168.366 67.2374 164.139 66.0292 158.927 66.0292C151.237 66.0292 145.644 68.7396 142.148 74.1603C138.716 79.5811 137 87.7122 137 98.5538Z" fill="#333333"/>
<path d="M90.8568 113.735C90.8568 122.226 88.8547 129.606 84.8505 135.876C80.8463 142.145 74.9989 146.978 67.3084 150.375C59.6814 153.771 50.4018 155.469 39.4698 155.469C34.6393 155.469 29.9042 155.142 25.2645 154.489C20.6883 153.836 16.271 152.889 12.0125 151.648C7.81769 150.342 3.81351 148.742 0 146.848V118.634C6.61008 121.638 13.4744 124.348 20.5929 126.765C27.7115 129.181 34.7665 130.39 41.7579 130.39C46.5883 130.39 50.4654 129.736 53.3891 128.43C56.3763 127.124 58.5373 125.328 59.872 123.042C61.2068 120.756 61.8741 118.144 61.8741 115.205C61.8741 111.613 60.6983 108.543 58.3466 105.996C55.995 103.449 52.7535 101.065 48.6222 98.8447C44.5545 96.6241 39.9465 94.2403 34.7982 91.6932C31.5568 90.1257 28.0293 88.2317 24.2158 86.0112C20.4023 83.7253 16.7794 80.9496 13.3473 77.6841C9.91512 74.4186 7.08677 70.4673 4.86222 65.8303C2.70123 61.1279 1.62074 55.5113 1.62074 48.9802C1.62074 40.4246 3.52749 33.1098 7.341 27.0359C11.1545 20.9621 16.5888 16.325 23.6437 13.1248C30.7623 9.85932 39.152 8.22656 48.8129 8.22656C56.0585 8.22656 62.9546 9.10825 69.5011 10.8716C76.1112 12.5697 83.0073 15.0515 90.1894 18.317L80.6556 41.9267C74.2362 39.249 68.4842 37.1917 63.3995 35.7549C58.3149 34.2527 53.1348 33.5017 47.8595 33.5017C44.1731 33.5017 41.027 34.1221 38.4211 35.363C35.8152 36.5386 33.8449 38.2367 32.5101 40.4572C31.1754 42.6125 30.508 45.1269 30.508 48.0006C30.508 51.3967 31.4614 54.2704 33.3682 56.6215C35.3385 58.9074 38.2622 61.1279 42.1392 63.2832C46.0799 65.4384 50.9739 67.9529 56.8212 70.8265C63.9398 74.288 70.0096 77.9127 75.0307 81.7007C80.1154 85.4234 84.0242 89.8318 86.7573 94.926C89.4903 99.9549 90.8568 106.225 90.8568 113.735Z" fill="#333333"/>
</svg>
