<svg width="75" height="96" viewBox="0 0 75 96" fill="none" xmlns="http://www.w3.org/2000/svg">
<path fill-rule="evenodd" clip-rule="evenodd" d="M33.5411 0C29.8486 0 26.6492 2.68228 25.8361 6.45839L25.6474 7.3343C25.4145 8.41609 24.4845 9.17669 23.4359 9.17669C20.4588 9.17669 18 11.7083 18 14.8171V19.2H50.1429V15.71C50.1429 12.1022 47.3537 9.17669 43.9121 9.17669H43.5544C42.508 9.17669 41.608 8.39849 41.409 7.32023L41.2961 6.70883C40.5772 2.81391 37.3252 0 33.5411 0ZM33.6431 15C35.5761 15 37.1431 13.433 37.1431 11.5C37.1431 9.567 35.5761 8 33.6431 8C31.7101 8 30.1431 9.567 30.1431 11.5C30.1431 13.433 31.7101 15 33.6431 15Z" fill="#385BCD" fill-opacity="0.5"/>
<path d="M48 23H15C14.4477 23 14 22.5523 14 22V13H17.8225C17.6343 13.381 17.258 14.4857 17.258 15.8571C17.258 16.6906 17.3155 17.5662 17.3606 18.2532L17.3628 18.2874C17.399 18.8385 17.8614 19.2857 18.4137 19.2857H49V22C49 22.5523 48.5523 23 48 23Z" fill="#385BCD" fill-opacity="0.2"/>
<path d="M65.476 63V66.6004H50.595C50.328 66.6004 50.0635 66.5935 49.8041 66.5868C47.6411 66.5305 45.8331 66.4835 45.8331 70.5124V92.4004L42 92.4004V66C42 64.5 43.3093 63 45 63H65.476Z" fill="#385BCD" fill-opacity="0.2"/>
<path fill-rule="evenodd" clip-rule="evenodd" d="M24.7738 6.86527C25.6694 2.8509 29.1933 0 33.2595 0C37.4267 0 41.0085 2.99081 41.8004 7.13151L41.9106 7.70789C42.0153 8.25558 42.4891 8.65116 43.0403 8.65116H43.3897C48.8095 9 49.9081 13.2571 49.9081 12.8372H60.1103C63.4605 12.8372 66.1765 15.586 66.1765 18.9767V65.8605H71.1397C73.2717 65.8605 75 67.6097 75 69.7674V92.093C75 94.2508 73.2717 96 71.1397 96H49.0809C47.3322 96 45.855 94.8232 45.3804 93.2093H6.06618C2.71592 93.2093 0 90.4605 0 87.0698V18.9767C0 15.586 2.71592 12.8372 6.06618 12.8372H17.4649C18.3431 10.3941 20.6859 8.65116 23.3891 8.65116C23.9629 8.65116 24.4654 8.2474 24.5896 7.69102L24.7738 6.86527ZM17.1766 13.9535H6.06618C3.32506 13.9535 1.10294 16.2025 1.10294 18.9767V87.0698C1.10294 89.844 3.32506 92.093 6.06618 92.093H45.2206V81.4884H30.8824C30.5778 81.4884 30.3309 81.2385 30.3309 80.9302C30.3309 80.622 30.5778 80.3721 30.8824 80.3721H45.2206V77.0233H30.8824C30.5778 77.0233 30.3309 76.7734 30.3309 76.4651C30.3309 76.1569 30.5778 75.907 30.8824 75.907H45.2206V72.5581H30.8824C30.5778 72.5581 30.3309 72.3083 30.3309 72C30.3309 71.6917 30.5778 71.4419 30.8824 71.4419H45.2206V69.7674C45.2206 67.6097 46.9489 65.8605 49.0809 65.8605H65.0735V18.9767C65.0735 16.2025 62.8514 13.9535 60.1103 13.9535H50.2202C50.3763 14.5445 50.4596 15.1657 50.4596 15.8066V19.1047C50.4596 19.6505 50.0223 20.093 49.483 20.093H18.0722C17.5328 20.093 17.0956 19.6505 17.0956 19.1047V14.9649C17.0956 14.6205 17.1233 14.2827 17.1766 13.9535ZM63.4191 66.9767H56.8015V74.1638L59.0566 72.2783C59.6682 71.767 60.5524 71.767 61.164 72.2783L63.4191 74.1638V66.9767ZM55.6985 66.9767V74.1656C55.6985 75.1132 56.7873 75.6236 57.5039 75.0244L59.7591 73.1389C59.9629 72.9685 60.2577 72.9685 60.4615 73.1389L62.7167 75.0244C63.4359 75.6258 64.5221 75.108 64.5221 74.1638V66.9767H71.1397C72.6626 66.9767 73.8971 68.2262 73.8971 69.7674V92.093C73.8971 93.6343 72.6626 94.8837 71.1397 94.8837H49.0809C47.558 94.8837 46.3235 93.6343 46.3235 92.093V69.7674C46.3235 68.2262 47.558 66.9767 49.0809 66.9767H55.6985ZM33.2595 1.11628C29.7088 1.11628 26.6317 3.60573 25.8496 7.11114L25.6654 7.93689C25.4255 9.01233 24.4681 9.76744 23.3891 9.76744C20.546 9.76744 18.1985 12.1014 18.1985 14.9649V18.9767H49.3566V15.8066C49.3566 12.4712 46.6851 9.76744 43.3897 9.76744H43.0403C41.9608 9.76744 41.0329 8.99267 40.8278 7.92001L40.7175 7.34363C40.0261 3.7279 36.8983 1.11628 33.2595 1.11628ZM33.364 8.37209C31.6888 8.37209 30.3309 9.74648 30.3309 11.4419C30.3309 13.1372 31.6888 14.5116 33.364 14.5116C35.0391 14.5116 36.3971 13.1372 36.3971 11.4419C36.3971 9.74648 35.0391 8.37209 33.364 8.37209ZM29.2279 11.4419C29.2279 9.12997 31.0797 7.25581 33.364 7.25581C35.6482 7.25581 37.5 9.12997 37.5 11.4419C37.5 13.7538 35.6482 15.6279 33.364 15.6279C31.0797 15.6279 29.2279 13.7538 29.2279 11.4419ZM7.72059 27.907C7.72059 26.674 8.70819 25.6744 9.92647 25.6744H16.5441C17.7624 25.6744 18.75 26.674 18.75 27.907V34.6047C18.75 35.8377 17.7624 36.8372 16.5441 36.8372H9.92647C8.70819 36.8372 7.72059 35.8377 7.72059 34.6047V27.907ZM9.92647 26.7907C9.31733 26.7907 8.82353 27.2905 8.82353 27.907V34.6047C8.82353 35.2212 9.31733 35.7209 9.92647 35.7209H16.5441C17.1533 35.7209 17.6471 35.2212 17.6471 34.6047V27.907C17.6471 27.2905 17.1533 26.7907 16.5441 26.7907H9.92647ZM58.4559 27.907H30.8824C30.5778 27.907 30.3309 27.6571 30.3309 27.3488C30.3309 27.0406 30.5778 26.7907 30.8824 26.7907L58.4559 26.7907C58.7604 26.7907 59.0074 27.0406 59.0074 27.3488C59.0074 27.6571 58.7604 27.907 58.4559 27.907ZM15.9267 30.4331C16.0711 30.7045 15.9708 31.043 15.7026 31.1891L12.4067 32.9853C11.9546 33.2317 11.3922 33.006 11.2298 32.5129L10.782 31.1532C10.6857 30.8608 10.8418 30.5447 11.1308 30.4472C11.4197 30.3498 11.732 30.5078 11.8283 30.8002L12.1725 31.8451L15.1797 30.2063C15.4479 30.0601 15.7823 30.1617 15.9267 30.4331ZM58.4559 32.3721H30.8824C30.5778 32.3721 30.3309 32.1222 30.3309 31.814C30.3309 31.5057 30.5778 31.2558 30.8824 31.2558L58.4559 31.2558C58.7604 31.2558 59.0074 31.5057 59.0074 31.814C59.0074 32.1222 58.7604 32.3721 58.4559 32.3721ZM30.3309 36.2791C30.3309 35.9708 30.5778 35.7209 30.8824 35.7209H58.4559C58.7604 35.7209 59.0074 35.9708 59.0074 36.2791C59.0074 36.5873 58.7604 36.8372 58.4559 36.8372H30.8824C30.5778 36.8372 30.3309 36.5873 30.3309 36.2791ZM7.72059 49.6744C7.72059 48.4414 8.70819 47.4419 9.92647 47.4419H16.5441C17.7624 47.4419 18.75 48.4414 18.75 49.6744V56.3721C18.75 57.6051 17.7624 58.6047 16.5441 58.6047H9.92647C8.70819 58.6047 7.72059 57.6051 7.72059 56.3721V49.6744ZM9.92647 48.5581C9.31733 48.5581 8.82353 49.0579 8.82353 49.6744V56.3721C8.82353 56.9886 9.31733 57.4884 9.92647 57.4884H16.5441C17.1533 57.4884 17.6471 56.9886 17.6471 56.3721V49.6744C17.6471 49.0579 17.1533 48.5581 16.5441 48.5581H9.92647ZM58.4559 49.6744L30.8824 49.6744C30.5778 49.6744 30.3309 49.4245 30.3309 49.1163C30.3309 48.808 30.5778 48.5581 30.8824 48.5581L58.4559 48.5581C58.7604 48.5581 59.0074 48.808 59.0074 49.1163C59.0074 49.4245 58.7604 49.6744 58.4559 49.6744ZM30.3309 53.5814C30.3309 53.2732 30.5778 53.0233 30.8824 53.0233H58.4559C58.7604 53.0233 59.0074 53.2732 59.0074 53.5814C59.0074 53.8897 58.7604 54.1395 58.4559 54.1395H30.8824C30.5778 54.1395 30.3309 53.8897 30.3309 53.5814ZM30.3309 58.0465C30.3309 57.7383 30.5778 57.4884 30.8824 57.4884H58.4559C58.7604 57.4884 59.0074 57.7383 59.0074 58.0465C59.0074 58.3548 58.7604 58.6047 58.4559 58.6047H30.8824C30.5778 58.6047 30.3309 58.3548 30.3309 58.0465ZM7.72059 72.5581C7.72059 71.3251 8.70819 70.3256 9.92647 70.3256H16.5441C17.7624 70.3256 18.75 71.3251 18.75 72.5581V79.2558C18.75 80.4888 17.7624 81.4884 16.5441 81.4884H9.92647C8.70819 81.4884 7.72059 80.4888 7.72059 79.2558V72.5581ZM9.92647 71.4419C9.31733 71.4419 8.82353 71.9416 8.82353 72.5581V79.2558C8.82353 79.8723 9.31733 80.3721 9.92647 80.3721H16.5441C17.1533 80.3721 17.6471 79.8723 17.6471 79.2558V72.5581C17.6471 71.9416 17.1533 71.4419 16.5441 71.4419H9.92647Z" fill="#1A1A1A"/>
<path d="M23.7745 78.6505C23.3558 78.6505 22.9836 78.5829 22.658 78.4479C22.3342 78.3128 22.0784 78.1248 21.8903 77.8839C21.7023 77.643 21.6025 77.3647 21.5908 77.049H22.6841C22.6938 77.2005 22.7471 77.3328 22.8441 77.4459C22.941 77.5573 23.0699 77.6439 23.2308 77.706C23.3917 77.768 23.572 77.7991 23.7716 77.7991C23.9849 77.7991 24.1739 77.7644 24.3386 77.695C24.5034 77.6239 24.6323 77.5253 24.7254 77.3994C24.8184 77.2735 24.864 77.1284 24.862 76.9641C24.864 76.7944 24.8174 76.6447 24.7225 76.5151C24.6275 76.3856 24.4898 76.2843 24.3096 76.2113C24.1312 76.1383 23.916 76.1018 23.664 76.1018H23.1377V75.3188H23.664C23.8715 75.3188 24.0527 75.2851 24.2078 75.2175C24.3648 75.15 24.4879 75.0551 24.5771 74.9328C24.6662 74.8087 24.7099 74.6654 24.7079 74.503C24.7099 74.3442 24.6721 74.2064 24.5945 74.0896C24.5189 73.971 24.4113 73.8788 24.2718 73.8131C24.1341 73.7474 23.9723 73.7146 23.7862 73.7146C23.6039 73.7146 23.4353 73.7456 23.2802 73.8077C23.1251 73.8697 23.0001 73.9582 22.9051 74.0732C22.8101 74.1864 22.7597 74.3214 22.7539 74.4784H21.7159C21.7236 74.1645 21.8196 73.8889 22.0037 73.6516C22.1898 73.4125 22.4379 73.2264 22.7481 73.0932C23.0583 72.9581 23.4062 72.8906 23.792 72.8906C24.1894 72.8906 24.5344 72.9608 24.8271 73.1014C25.1218 73.2401 25.3496 73.4271 25.5105 73.6626C25.6714 73.898 25.7518 74.1581 25.7518 74.4428C25.7537 74.7585 25.6549 75.0232 25.4552 75.2367C25.2575 75.4502 24.9977 75.5898 24.6759 75.6555V75.6993C25.0947 75.7541 25.4155 75.9001 25.6384 76.1374C25.8633 76.3728 25.9747 76.6657 25.9728 77.0161C25.9728 77.33 25.8778 77.6111 25.6878 77.8593C25.4998 78.1057 25.24 78.2991 24.9086 78.4397C24.579 78.5802 24.201 78.6505 23.7745 78.6505Z" fill="#1A1A1A"/>
<path d="M22.0538 55.9973V55.2636L24.1212 53.3555C24.3189 53.1676 24.4837 53.0006 24.6155 52.8546C24.7473 52.7086 24.8462 52.5671 24.9121 52.4302C24.978 52.2934 25.011 52.1473 25.011 51.9922C25.011 51.8152 24.9683 51.6637 24.883 51.5378C24.7977 51.41 24.6805 51.3115 24.5312 51.2421C24.3819 51.1728 24.2123 51.1381 24.0223 51.1381C23.8266 51.1381 23.655 51.1764 23.5077 51.2531C23.3603 51.3279 23.246 51.4347 23.1646 51.5734C23.0851 51.7121 23.0453 51.8772 23.0453 52.0689H22.0189C22.0189 51.713 22.1052 51.4036 22.2777 51.1408C22.4502 50.878 22.6877 50.6745 22.9901 50.5303C23.2944 50.3862 23.6434 50.3141 24.0369 50.3141C24.4362 50.3141 24.7871 50.3843 25.0895 50.5249C25.3919 50.6654 25.6265 50.8579 25.7932 51.1025C25.9618 51.3471 26.0461 51.6263 26.0461 51.9402C26.0461 52.1501 26.0035 52.3563 25.9182 52.5589C25.8329 52.7615 25.6827 52.986 25.4675 53.2323C25.2543 53.4787 24.9548 53.7771 24.569 54.1275L23.5426 55.1103V55.1487H26.1363V55.9973H22.0538Z" fill="#1A1A1A"/>
<path d="M25.0517 28.9155V34.5221H23.9729V29.9038H23.938L22.5452 30.7415V29.8107L24.0253 28.9155H25.0517Z" fill="#1A1A1A"/>
<path fill-rule="evenodd" clip-rule="evenodd" d="M64 66.4991V73.8763C64 74.5685 63.1679 74.946 62.6209 74.5021L60.7697 72.9995C60.3224 72.6364 59.6776 72.6364 59.2303 72.9995L57.3791 74.5021C56.8321 74.946 56 74.5685 56 73.8763V66.498L64 66.4991Z" fill="#385BCD" fill-opacity="0.5"/>
</svg>
