<svg width="265" height="567" xmlns="http://www.w3.org/2000/svg" xmlns:xlink="http://www.w3.org/1999/xlink" overflow="hidden"><defs><clipPath id="clip0"><rect x="0" y="0" width="265" height="567"/></clipPath><clipPath id="clip1"><rect x="6" y="253" width="252" height="31"/></clipPath><clipPath id="clip2"><rect x="6" y="253" width="252" height="31"/></clipPath></defs><g clip-path="url(#clip0)"><rect x="0" y="0" width="265" height="566.928" fill="#FFFFFF"/><text fill="#262626" font-family="Inter Light,Inter Light_MSFontService,sans-serif" font-weight="300" font-size="13.3333" transform="matrix(1 0 0 0.998113 58.5272 301)">Aplicativo de Contagem</text><text fill="#262626" font-family="Inter Light,Inter Light_MSFontService,sans-serif" font-weight="300" font-size="13.3333" transform="matrix(1 0 0 0.998113 206.473 301)"></text><g clip-path="url(#clip1)"><g clip-path="url(#clip2)"><g><path d="M245.361 51.5603 243.691 45.9537C243.618 45.7135 243.546 45.4791 243.478 45.2506 243.415 45.0163 243.356 44.7937 243.298 44.5827 243.247 44.366 243.198 44.1668 243.153 43.9851 243.113 43.7976 243.078 43.6366 243.05 43.5018L242.99 43.5018C242.968 43.6366 242.936 43.7976 242.896 43.9851 242.856 44.1668 242.807 44.366 242.749 44.5827 242.699 44.7995 242.641 45.028 242.578 45.2683 242.517 45.5026 242.445 45.7398 242.365 45.9801L240.619 51.5603 239.017 51.5603 236.433 41.9288 237.906 41.9288 239.258 47.2454C239.349 47.5969 239.435 47.9457 239.515 48.2913 239.601 48.6311 239.671 48.9533 239.728 49.258 239.791 49.5568 239.837 49.8175 239.865 50.04L239.935 50.04C239.968 49.8936 240.006 49.7179 240.045 49.5127 240.09 49.3078 240.139 49.091 240.191 48.8624 240.247 48.6281 240.308 48.3966 240.371 48.1683 240.432 47.9338 240.495 47.7142 240.558 47.5091L242.288 41.9288 243.82 41.9288 245.489 47.5003C245.575 47.7816 245.657 48.0744 245.737 48.3792 245.823 48.6837 245.9 48.9797 245.968 49.2667 246.038 49.5479 246.085 49.7998 246.114 50.0224L246.183 50.0224C246.205 49.8232 246.249 49.5772 246.31 49.2842 246.373 48.9914 246.445 48.6692 246.525 48.3177 246.611 47.9661 246.7 47.6086 246.791 47.2454L248.16 41.9288 249.607 41.9288 247.012 51.5603 245.361 51.5603Z" fill="#333333" transform="matrix(1.0025 0 0 1 6.99998 253.521)"/><path d="M235.093 46.7445C235.093 47.5353 234.993 48.2413 234.794 48.8623 234.595 49.4834 234.307 50.0077 233.929 50.4354 233.554 50.863 233.096 51.1911 232.56 51.4196 232.03 51.6422 231.427 51.7535 230.755 51.7535 230.126 51.7535 229.549 51.6422 229.025 51.4196 228.506 51.1911 228.055 50.863 227.673 50.4354 227.295 50.0077 227.002 49.4834 226.79 48.8623 226.586 48.2413 226.483 47.5353 226.483 46.7445 226.483 45.6899 226.658 44.7935 227.005 44.0554 227.353 43.3112 227.849 42.7458 228.494 42.3592 229.146 41.9668 229.918 41.7704 230.814 41.7704 231.67 41.7704 232.418 41.9668 233.056 42.3592 233.701 42.7518 234.2 43.32 234.555 44.0641 234.913 44.8023 235.093 45.6956 235.093 46.7445ZM227.956 46.7445C227.956 47.5178 228.055 48.1885 228.255 48.7569 228.454 49.3251 228.763 49.7645 229.179 50.075 229.596 50.3856 230.133 50.5408 230.788 50.5408 231.438 50.5408 231.973 50.3856 232.388 50.075 232.811 49.7645 233.122 49.3251 233.321 48.7569 233.522 48.1885 233.622 47.5178 233.622 46.7445 233.622 45.9769 233.522 45.3149 233.321 44.7583 233.122 44.1958 232.815 43.7623 232.397 43.4576 231.981 43.1531 231.441 43.0007 230.779 43.0007 229.804 43.0007 229.088 43.3317 228.632 43.9939 228.181 44.6559 227.956 45.5726 227.956 46.7445Z" fill="#333333" transform="matrix(1.0025 0 0 1 6.99998 253.521)"/><path d="M217.5 37.9035 217.5 41.9898C217.5 42.2241 217.493 42.4614 217.483 42.7016 217.471 42.9359 217.452 43.1528 217.424 43.3519L217.516 43.3519C217.71 43.0121 217.956 42.728 218.254 42.4995 218.556 42.2652 218.898 42.0894 219.281 41.9722 219.662 41.8492 220.067 41.7877 220.495 41.7877 221.248 41.7877 221.877 41.9107 222.379 42.1567 222.887 42.4029 223.266 42.7836 223.518 43.2992 223.775 43.8148 223.902 44.4825 223.902 45.3029L223.902 51.5774 222.499 51.5774 222.499 45.3995C222.499 44.5968 222.319 43.9963 221.959 43.5979 221.606 43.1996 221.061 43.0004 220.324 43.0004 219.629 43.0004 219.071 43.1381 218.655 43.4134 218.245 43.6829 217.948 44.0814 217.764 44.6085 217.588 45.1358 217.5 45.7804 217.5 46.542L217.5 51.5774 216.078 51.5774 216.078 37.9035 217.5 37.9035Z" fill="#333333" transform="matrix(1.0025 0 0 1 6.99998 253.521)"/><path d="M213.559 48.159C213.559 48.9206 213.374 49.5709 213.001 50.1099 212.636 50.643 212.123 51.0503 211.462 51.3314 210.8 51.6127 210.021 51.7532 209.124 51.7532 208.651 51.7532 208.204 51.7298 207.781 51.6829 207.358 51.6361 206.97 51.5687 206.617 51.4808 206.262 51.3929 205.951 51.2846 205.684 51.1556L205.684 49.7233C206.112 49.9048 206.633 50.0748 207.25 50.2329 207.866 50.3853 208.511 50.4615 209.184 50.4615 209.813 50.4615 210.342 50.3764 210.777 50.2066 211.211 50.0308 211.539 49.7818 211.761 49.4596 211.99 49.1315 212.103 48.7389 212.103 48.282 212.103 47.8426 212.009 47.4764 211.82 47.1835 211.632 46.8848 211.319 46.6152 210.879 46.3749 210.445 46.1289 209.851 45.8683 209.098 45.5929 208.569 45.3995 208.101 45.1886 207.695 44.9601 207.29 44.7258 206.951 44.4621 206.677 44.1693 206.402 43.8763 206.194 43.5364 206.051 43.1498 205.915 42.7631 205.847 42.3207 205.847 41.8228 205.847 41.1374 206.014 40.5515 206.352 40.0653 206.694 39.5731 207.164 39.1981 207.763 38.9404 208.368 38.6768 209.061 38.5449 209.844 38.5449 210.512 38.5449 211.127 38.6093 211.693 38.7383 212.262 38.8672 212.785 39.04 213.258 39.2567L212.806 40.5398C212.355 40.3464 211.874 40.1853 211.368 40.0565 210.865 39.9276 210.346 39.8631 209.809 39.8631 209.273 39.8631 208.819 39.9451 208.448 40.1091 208.083 40.2674 207.803 40.493 207.61 40.7858 207.416 41.0788 207.318 41.4274 207.318 41.8317 207.318 42.2828 207.41 42.6578 207.592 42.9565 207.781 43.2553 208.078 43.5218 208.483 43.7562 208.894 43.9846 209.435 44.2248 210.108 44.4768 210.845 44.7521 211.469 45.0451 211.983 45.3556 212.496 45.6603 212.888 46.0353 213.157 46.4805 213.424 46.9199 213.559 47.4793 213.559 48.159Z" fill="#333333" transform="matrix(1.0025 0 0 1 6.99998 253.521)"/><path d="M198.374 41.9465 198.374 51.5781 197.21 51.5781 197.004 50.2247 196.927 50.2247C196.733 50.5588 196.482 50.8399 196.174 51.0684 195.867 51.297 195.517 51.4668 195.129 51.5781 194.748 51.6953 194.34 51.7539 193.906 51.7539 193.164 51.7539 192.542 51.6309 192.04 51.3849 191.537 51.1387 191.158 50.758 190.901 50.2424 190.651 49.7268 190.525 49.0648 190.525 48.2563L190.525 41.9465 191.963 41.9465 191.963 48.1508C191.963 48.9535 192.14 49.554 192.493 49.9523 192.847 50.3449 193.387 50.5411 194.111 50.5411 194.808 50.5411 195.362 50.4064 195.772 50.1368 196.188 49.8674 196.489 49.4719 196.67 48.9505 196.854 48.4232 196.945 47.7788 196.945 47.0172L196.945 41.9465 198.374 41.9465Z" fill="#333333" transform="matrix(1.0025 0 0 1 6.99998 253.521)"/><path d="M184.222 41.7882C185.34 41.7882 186.17 42.0459 186.711 42.5615 187.255 43.0771 187.525 43.9002 187.525 45.031L187.525 51.5779 186.489 51.5779 186.215 50.1543 186.147 50.1543C185.885 50.5058 185.611 50.8017 185.326 51.0419 185.039 51.2762 184.709 51.4549 184.332 51.5779 183.961 51.6952 183.505 51.7537 182.964 51.7537 182.392 51.7537 181.884 51.6511 181.44 51.4462 181 51.2411 180.652 50.9306 180.395 50.5146 180.144 50.0986 180.018 49.5714 180.018 48.9328 180.018 47.9719 180.39 47.2337 181.131 46.7183 181.873 46.2027 183.002 45.9214 184.52 45.8745L186.138 45.8043 186.138 45.2155C186.138 44.3835 185.963 43.8006 185.616 43.4667 185.268 43.1327 184.777 42.9658 184.145 42.9658 183.654 42.9658 183.185 43.039 182.74 43.1854 182.294 43.3318 181.873 43.5048 181.473 43.704L181.036 42.5966C181.459 42.374 181.945 42.1836 182.492 42.0255 183.04 41.8673 183.617 41.7882 184.222 41.7882ZM186.121 46.8325 184.691 46.894C183.523 46.9409 182.698 47.1371 182.217 47.4828 181.739 47.8284 181.499 48.3177 181.499 48.9503 181.499 49.501 181.662 49.9083 181.987 50.172 182.312 50.4354 182.743 50.5674 183.28 50.5674 184.113 50.5674 184.795 50.3301 185.326 49.8555 185.855 49.381 186.121 48.6692 186.121 47.7201L186.121 46.8325Z" fill="#333333" transform="matrix(1.0025 0 0 1 6.99998 253.521)"/><path d="M175.889 51.7535C175.043 51.7535 174.299 51.5748 173.654 51.2175 173.01 50.8602 172.507 50.3152 172.148 49.583 171.788 48.8506 171.609 47.9279 171.609 46.8147 171.609 45.6488 171.797 44.6968 172.174 43.9586 172.556 43.2146 173.081 42.6639 173.749 42.3064 174.416 41.9491 175.174 41.7704 176.025 41.7704 176.494 41.7704 176.944 41.8202 177.378 41.9198 177.818 42.0136 178.176 42.1336 178.456 42.2802L178.028 43.5017C177.743 43.3844 177.413 43.2791 177.035 43.1852 176.665 43.0916 176.317 43.0446 175.99 43.0446 175.34 43.0446 174.799 43.1882 174.365 43.4753 173.937 43.7623 173.614 44.1841 173.398 44.7408 173.187 45.2973 173.081 45.9829 173.081 46.7971 173.081 47.5763 173.184 48.2413 173.389 48.792 173.6 49.3427 173.911 49.7645 174.322 50.0575 174.739 50.3446 175.258 50.488 175.88 50.488 176.377 50.488 176.824 50.4354 177.224 50.3299 177.624 50.2186 177.986 50.0897 178.311 49.9432L178.311 51.2439C177.996 51.4079 177.647 51.5339 177.257 51.6218 176.876 51.7097 176.419 51.7535 175.889 51.7535Z" fill="#333333" transform="matrix(1.0025 0 0 1 6.99998 253.521)"/><path d="M165.724 41.7882C166.843 41.7882 167.673 42.0459 168.215 42.5615 168.757 43.0771 169.028 43.9002 169.028 45.031L169.028 51.5779 167.992 51.5779 167.719 50.1543 167.65 50.1543C167.388 50.5058 167.114 50.8017 166.828 51.0419 166.543 51.2762 166.212 51.4549 165.836 51.5779 165.465 51.6952 165.008 51.7537 164.466 51.7537 163.895 51.7537 163.388 51.6511 162.942 51.4462 162.503 51.2411 162.155 50.9306 161.898 50.5146 161.647 50.0986 161.522 49.5714 161.522 48.9328 161.522 47.9719 161.892 47.2337 162.634 46.7183 163.376 46.2027 164.506 45.9214 166.024 45.8745L167.642 45.8043 167.642 45.2155C167.642 44.3835 167.468 43.8006 167.119 43.4667 166.771 43.1327 166.281 42.9658 165.647 42.9658 165.156 42.9658 164.688 43.039 164.243 43.1854 163.798 43.3318 163.376 43.5048 162.977 43.704L162.54 42.5966C162.962 42.374 163.447 42.1836 163.995 42.0255 164.543 41.8673 165.119 41.7882 165.724 41.7882ZM167.624 46.8325 166.195 46.894C165.025 46.9409 164.201 47.1371 163.721 47.4828 163.242 47.8284 163.002 48.3177 163.002 48.9503 163.002 49.501 163.165 49.9083 163.49 50.172 163.815 50.4354 164.246 50.5674 164.783 50.5674 165.616 50.5674 166.298 50.3301 166.828 49.8555 167.359 49.381 167.624 48.6692 167.624 47.7201L167.624 46.8325Z" fill="#333333" transform="matrix(1.0025 0 0 1 6.99998 253.521)"/><path d="M156.561 39.8631C155.871 39.8631 155.249 39.9861 154.696 40.2321 154.148 40.4724 153.68 40.8239 153.292 41.2867 152.909 41.7438 152.615 42.2973 152.41 42.9476 152.205 43.5979 152.102 44.3304 152.102 45.1447 152.102 46.2228 152.264 47.1601 152.59 47.9569 152.921 48.7478 153.412 49.36 154.062 49.7935 154.718 50.227 155.537 50.4438 156.519 50.4438 157.078 50.4438 157.603 50.397 158.094 50.3032 158.59 50.2036 159.072 50.0806 159.54 49.9342L159.54 51.2348C159.084 51.4106 158.604 51.5393 158.102 51.6214 157.6 51.7093 157.004 51.7532 156.313 51.7532 155.041 51.7532 153.976 51.4838 153.12 50.9448 152.27 50.4 151.631 49.6324 151.203 48.6423 150.781 47.6521 150.57 46.4834 150.57 45.1358 150.57 44.1633 150.701 43.2758 150.964 42.4731 151.232 41.6647 151.62 40.9675 152.128 40.3817 152.641 39.7957 153.269 39.3446 154.011 39.0283 154.758 38.7059 155.614 38.5449 156.579 38.5449 157.212 38.5449 157.823 38.6093 158.41 38.7383 158.998 38.8672 159.529 39.0517 160.002 39.292L159.42 40.5573C159.021 40.3698 158.581 40.2087 158.102 40.074 157.629 39.9334 157.115 39.8631 156.561 39.8631Z" fill="#333333" transform="matrix(1.0025 0 0 1 6.99998 253.521)"/><path d="M135.831 41.9465 137.354 41.9465 139.426 47.5356C139.546 47.8637 139.657 48.1802 139.759 48.4847 139.862 48.7835 139.954 49.0707 140.033 49.3461 140.113 49.6214 140.176 49.8879 140.222 50.1458L140.282 50.1458C140.361 49.8527 140.476 49.4691 140.624 48.9945 140.772 48.514 140.932 48.0248 141.103 47.5269L143.063 41.9465 144.596 41.9465 140.513 52.993C140.296 53.5848 140.042 54.1002 139.751 54.5396 139.466 54.979 139.117 55.3159 138.707 55.5502 138.296 55.7904 137.799 55.9106 137.217 55.9106 136.949 55.9106 136.712 55.893 136.507 55.8579 136.301 55.8285 136.125 55.7934 135.976 55.7523L135.976 54.5836C136.102 54.6128 136.253 54.6392 136.43 54.6626 136.612 54.6862 136.801 54.6979 136.995 54.6979 137.349 54.6979 137.654 54.6275 137.911 54.487 138.173 54.3521 138.399 54.153 138.587 53.8893 138.775 53.6257 138.938 53.3122 139.075 52.949L139.588 51.5958 135.831 41.9465Z" fill="#333333" transform="matrix(1.0025 0 0 1 6.99998 253.521)"/><path d="M127.823 37.9035 127.823 41.3219C127.823 41.7145 127.812 42.0952 127.789 42.4644 127.772 42.8334 127.758 43.1204 127.746 43.3256L127.823 43.3256C128.08 42.8921 128.451 42.5259 128.936 42.2271 129.421 41.9283 130.04 41.7789 130.793 41.7789 131.969 41.7789 132.905 42.1977 133.601 43.0355 134.303 43.8675 134.654 45.1066 134.654 46.7529 134.654 47.8367 134.494 48.7506 134.174 49.4947 133.855 50.2387 133.404 50.8011 132.822 51.182 132.24 51.5627 131.552 51.7532 130.759 51.7532 130.017 51.7532 129.407 51.6125 128.927 51.3314 128.454 51.0443 128.089 50.6958 127.832 50.2857L127.721 50.2857 127.43 51.5774 126.402 51.5774 126.402 37.9035 127.823 37.9035ZM130.562 43.0004C129.883 43.0004 129.344 43.1381 128.945 43.4134 128.545 43.6829 128.257 44.0931 128.08 44.6438 127.909 45.1886 127.823 45.88 127.823 46.7177L127.823 46.7967C127.823 48.0096 128.02 48.9381 128.414 49.5826 128.808 50.2212 129.524 50.5405 130.562 50.5405 131.435 50.5405 132.089 50.2123 132.522 49.5562 132.962 48.9 133.182 47.9626 133.182 46.7441 133.182 45.502 132.965 44.5676 132.531 43.9407 132.103 43.3138 131.447 43.0004 130.562 43.0004Z" fill="#333333" transform="matrix(1.0025 0 0 1 6.99998 253.521)"/><path d="M238.879 26.8227 237.447 20.13C237.37 19.7306 237.242 19.143 237.064 18.3671 236.886 17.5797 236.692 16.741 236.48 15.8509 236.281 14.9494 236.092 14.1165 235.914 13.3519 235.748 12.5874 235.626 12.0282 235.547 11.6745L235.399 11.6745C235.32 12.0282 235.198 12.5874 235.032 13.3519 234.864 14.1165 234.675 14.9494 234.466 15.8509 234.265 16.7524 234.076 17.6025 233.898 18.4014 233.721 19.1886 233.589 19.7878 233.5 20.1985L232.001 26.8227 226.537 26.8227 221.239 7.68633 226.303 7.68633 228.452 16.159C228.597 16.7524 228.735 17.4599 228.868 18.2815 229.002 19.0917 229.118 19.879 229.217 20.6435 229.329 21.3968 229.413 21.9957 229.467 22.4407L229.602 22.4407C229.623 22.1098 229.668 21.6705 229.734 21.1228 229.813 20.5751 229.895 20.0102 229.984 19.4284 230.084 18.8348 230.173 18.3042 230.252 17.8365 230.339 17.3572 230.407 17.032 230.451 16.8608L232.75 7.68633 238.346 7.68633 240.529 16.8608C240.605 17.1917 240.707 17.7166 240.829 18.4356 240.962 19.1544 241.079 19.8961 241.179 20.6607 241.278 21.4139 241.334 22.0072 241.345 22.4407L241.477 22.4407C241.523 22.0528 241.6 21.4766 241.711 20.712 241.822 19.9475 241.949 19.1486 242.094 18.3157 242.25 17.4713 242.405 16.7524 242.561 16.159L244.794 7.68633 249.773 7.68633 244.409 26.8227 238.879 26.8227Z" fill="#333333" transform="matrix(1.0025 0 0 1 6.99998 253.521)"/><path d="M219.373 17.2193C219.373 18.8168 219.162 20.2319 218.741 21.4642 218.33 22.6967 217.724 23.7408 216.926 24.5966 216.136 25.441 215.182 26.08 214.06 26.5136 212.949 26.9473 211.695 27.1641 210.295 27.1641 208.985 27.1641 207.781 26.9473 206.68 26.5136 205.592 26.08 204.643 25.441 203.832 24.5966 203.032 23.7408 202.412 22.6967 201.966 21.4642 201.533 20.2319 201.316 18.8168 201.316 17.2193 201.316 15.0969 201.683 13.2996 202.417 11.8276 203.149 10.3556 204.194 9.23732 205.548 8.47278 206.902 7.70824 208.518 7.32597 210.395 7.32597 212.138 7.32597 213.683 7.70824 215.026 8.47278 216.381 9.23732 217.441 10.3556 218.208 11.8276 218.986 13.2996 219.373 15.0969 219.373 17.2193ZM206.497 17.2193C206.497 18.4746 206.631 19.5301 206.897 20.3858 207.164 21.2418 207.58 21.8865 208.146 22.32 208.712 22.7536 209.451 22.9705 210.361 22.9705 211.261 22.9705 211.988 22.7536 212.544 22.32 213.11 21.8865 213.522 21.2418 213.777 20.3858 214.043 19.5301 214.177 18.4746 214.177 17.2193 214.177 15.9527 214.043 14.9029 213.777 14.0699 213.522 13.2255 213.11 12.5922 212.544 12.1699 211.978 11.7477 211.239 11.5366 210.328 11.5366 208.985 11.5366 208.008 12.0102 207.396 12.9573 206.797 13.9044 206.497 15.3251 206.497 17.2193Z" fill="#333333" transform="matrix(1.0025 0 0 1 6.99998 253.521)"/><path d="M185.109 0.188369 185.109 5.61432C185.109 6.56144 185.076 7.46291 185.01 8.31873 184.954 9.17456 184.91 9.77935 184.877 10.1331L185.142 10.1331C185.542 9.47125 186.014 8.93493 186.559 8.52413 187.113 8.11334 187.725 7.81094 188.39 7.61696 189.058 7.42297 189.774 7.32597 190.539 7.32597 191.883 7.32597 193.055 7.57131 194.055 8.06199 195.054 8.54125 195.832 9.30008 196.386 10.3385 196.941 11.3655 197.219 12.7006 197.219 14.3438L197.219 26.8216 192.138 26.8216 192.138 15.6446C192.138 14.2753 191.893 13.2426 191.406 12.5465 190.917 11.8505 190.162 11.5024 189.14 11.5024 188.12 11.5024 187.314 11.7478 186.725 12.2384 186.136 12.7177 185.721 13.4309 185.476 14.378 185.231 15.3137 185.109 16.4605 185.109 17.8185L185.109 26.8216 180.028 26.8216 180.028 0.188369 185.109 0.188369Z" fill="#333333" transform="matrix(1.0025 0 0 1 6.99998 253.521)"/><path d="M176.015 19.8732C176.015 21.3568 175.664 22.6462 174.965 23.7415 174.265 24.837 173.243 25.6814 171.9 26.2748 170.567 26.8681 168.946 27.165 167.036 27.165 166.192 27.165 165.364 27.1078 164.554 26.9937 163.754 26.8797 162.983 26.7142 162.238 26.4974 161.506 26.2692 160.806 25.9896 160.14 25.6587L160.14 20.7292C161.295 21.254 162.494 21.7275 163.738 22.1498 164.981 22.5719 166.214 22.783 167.436 22.783 168.28 22.783 168.957 22.6689 169.468 22.4407 169.99 22.2125 170.367 21.8987 170.601 21.4993 170.834 21.0999 170.95 20.6435 170.95 20.13 170.95 19.5024 170.745 18.9661 170.334 18.521 169.923 18.076 169.357 17.6595 168.635 17.2715 167.924 16.8835 167.119 16.467 166.22 16.022 165.653 15.7481 165.037 15.4172 164.371 15.0293 163.704 14.6299 163.071 14.1449 162.472 13.5743 161.872 13.0038 161.378 12.3134 160.989 11.5032 160.612 10.6816 160.423 9.70031 160.423 8.55919 160.423 7.06436 160.756 5.78631 161.422 4.72508 162.088 3.66387 163.038 2.85369 164.271 2.29455 165.514 1.72399 166.98 1.43871 168.668 1.43871 169.934 1.43871 171.139 1.59276 172.283 1.90085 173.438 2.19754 174.643 2.63116 175.898 3.20171L174.232 7.32681C173.11 6.85896 172.105 6.49951 171.217 6.24847 170.328 5.986 169.423 5.85479 168.502 5.85479 167.858 5.85479 167.308 5.96318 166.853 6.17999 166.397 6.3854 166.053 6.68209 165.82 7.07005 165.587 7.44663 165.47 7.88595 165.47 8.38804 165.47 8.98141 165.637 9.4835 165.97 9.89428 166.314 10.2937 166.825 10.6816 167.502 11.0582 168.191 11.4348 169.046 11.8741 170.067 12.3762 171.311 12.981 172.372 13.6143 173.249 14.2761 174.137 14.9266 174.82 15.6968 175.299 16.5869 175.776 17.4655 176.015 18.5611 176.015 19.8732Z" fill="#333333" transform="matrix(1.0025 0 0 1 6.99998 253.521)"/><path d="M142.071 7.32597C143.792 7.32597 145.275 7.6683 146.519 8.35295 147.762 9.0262 148.723 10.0076 149.4 11.297 150.078 12.5865 150.416 14.1612 150.416 16.0212L150.416 18.5544 138.407 18.5544C138.462 20.0264 138.889 21.1847 139.689 22.0291 140.5 22.8621 141.621 23.2787 143.054 23.2787 144.242 23.2787 145.33 23.1531 146.319 22.902 147.307 22.6509 148.323 22.2744 149.367 21.7724L149.367 25.8118C148.445 26.2797 147.479 26.6219 146.469 26.8388 145.469 27.0556 144.253 27.1641 142.821 27.1641 140.955 27.1641 139.3 26.8103 137.857 26.1029 136.424 25.3954 135.297 24.317 134.475 22.8677 133.665 21.4186 133.259 19.5928 133.259 17.3905 133.259 15.1539 133.626 13.2939 134.359 11.8105 135.103 10.3157 136.136 9.19738 137.457 8.45566 138.779 7.70252 140.317 7.32597 142.071 7.32597ZM142.105 11.0403C141.116 11.0403 140.294 11.3655 139.639 12.0159 138.995 12.6663 138.623 13.6876 138.523 15.0798L145.652 15.0798C145.641 14.3038 145.502 13.6134 145.236 13.0087 144.981 12.4039 144.592 11.9246 144.07 11.5709 143.559 11.2171 142.904 11.0403 142.105 11.0403Z" fill="#333333" transform="matrix(1.0025 0 0 1 6.99998 253.521)"/><path d="M129.295 7.32597C129.55 7.32597 129.845 7.34307 130.178 7.37732 130.522 7.40014 130.8 7.43436 131.011 7.48002L130.627 12.3753C130.461 12.3183 130.222 12.2784 129.911 12.2555 129.611 12.2213 129.35 12.2042 129.128 12.2042 128.473 12.2042 127.835 12.2898 127.213 12.4609 126.602 12.6321 126.052 12.9117 125.564 13.2996 125.075 13.6762 124.686 14.1783 124.398 14.8059 124.12 15.4221 123.981 16.1809 123.981 17.0824L123.981 26.8216 118.901 26.8216 118.901 7.68542 122.749 7.68542 123.498 10.9033 123.748 10.9033C124.114 10.2529 124.57 9.65953 125.114 9.12321 125.669 8.57548 126.297 8.14186 126.996 7.82235 127.707 7.49143 128.473 7.32597 129.295 7.32597Z" fill="#333333" transform="matrix(1.0025 0 0 1 6.99998 253.521)"/><path d="M105.908 7.29184C108.406 7.29184 110.322 7.85098 111.655 8.96926 112.987 10.0875 113.653 11.7878 113.653 14.07L113.653 26.8218 110.105 26.8218 109.123 24.2201 108.989 24.2201C108.456 24.9048 107.912 25.4639 107.357 25.8976 106.802 26.3312 106.163 26.6506 105.441 26.8561 104.719 27.0615 103.842 27.1641 102.809 27.1641 101.71 27.1641 100.722 26.9473 99.8444 26.5138 98.9783 26.0801 98.2953 25.4183 97.7956 24.5283 97.2959 23.6267 97.0461 22.4856 97.0461 21.105 97.0461 19.0737 97.7401 17.579 99.1282 16.6204 100.516 15.6504 102.599 15.1141 105.375 15.0114L108.606 14.9087 108.606 14.07C108.606 13.0658 108.351 12.3298 107.84 11.862 107.329 11.3941 106.618 11.1602 105.708 11.1602 104.808 11.1602 103.926 11.2914 103.059 11.5539 102.193 11.8163 101.327 12.1472 100.461 12.5466L98.7784 9.02061C99.7666 8.48429 100.872 8.06208 102.093 7.75398 103.326 7.44589 104.597 7.29184 105.908 7.29184ZM108.606 17.9555 106.641 18.024C104.997 18.0696 103.853 18.372 103.209 18.9311 102.576 19.4902 102.26 20.2263 102.26 21.1391 102.26 21.9379 102.487 22.5085 102.943 22.8508 103.398 23.1817 103.992 23.3472 104.725 23.3472 105.813 23.3472 106.729 23.0162 107.474 22.3544 108.229 21.6926 108.606 20.7512 108.606 19.5302L108.606 17.9555Z" fill="#333333" transform="matrix(1.0025 0 0 1 6.99998 253.521)"/><path d="M84.3698 26.8213 82.9372 20.1286C82.8595 19.7292 82.7319 19.1416 82.5543 18.3657 82.3766 17.5783 82.1821 16.7396 81.9712 15.8496 81.7713 14.9481 81.5825 14.1151 81.4048 13.3505 81.2383 12.586 81.1161 12.0269 81.0384 11.6731L80.8885 11.6731C80.8107 12.0269 80.6886 12.586 80.5219 13.3505 80.3554 14.1151 80.1667 14.9481 79.9556 15.8496 79.7558 16.751 79.5669 17.6011 79.3892 18.4 79.2117 19.1873 79.0784 19.7864 78.9894 20.1971L77.4903 26.8213 72.0267 26.8213 66.7297 7.68496 71.7936 7.68496 73.9423 16.1577C74.0866 16.751 74.2255 17.4585 74.3588 18.2801 74.492 19.0903 74.6087 19.8776 74.7086 20.6421 74.8196 21.3954 74.9029 21.9945 74.9585 22.4395L75.0916 22.4395C75.1138 22.1086 75.1584 21.6692 75.2249 21.1214 75.3027 20.5737 75.386 20.009 75.4748 19.427 75.5747 18.8336 75.6636 18.303 75.7414 17.8351 75.8302 17.3558 75.8967 17.0306 75.9413 16.8594L78.2399 7.68496 83.8369 7.68496 86.019 16.8594C86.0967 17.1904 86.1967 17.7152 86.3188 18.4342 86.4521 19.153 86.5686 19.8947 86.6686 20.6593 86.7685 21.4125 86.8241 22.0058 86.8351 22.4395L86.9684 22.4395C87.0128 22.0514 87.0905 21.4752 87.2016 20.7106 87.3126 19.9461 87.4403 19.1474 87.5848 18.3143 87.7401 17.4699 87.8956 16.751 88.0511 16.1577L90.2832 7.68496 95.2638 7.68496 89.9002 26.8213 84.3698 26.8213Z" fill="#333333" transform="matrix(1.0025 0 0 1 6.99998 253.521)"/><path d="M62.0823 23.0049C62.6376 23.0049 63.176 22.9478 63.6979 22.8337 64.231 22.7196 64.7585 22.577 65.2804 22.4058L65.2804 26.2912C64.7363 26.5423 64.0589 26.7477 63.2482 26.9074 62.4487 27.0787 61.5714 27.1641 60.6164 27.1641 59.5059 27.1641 58.5065 26.9815 57.618 26.6165 56.7407 26.2398 56.0468 25.5951 55.5359 24.6822 55.0362 23.7579 54.7863 22.4743 54.7863 20.831L54.7863 11.6052 52.3542 11.6052 52.3542 9.39719 55.1527 7.6513 56.6186 3.6118 59.8668 3.6118 59.8668 7.68554 65.0805 7.68554 65.0805 11.6052 59.8668 11.6052 59.8668 20.831C59.8668 21.5613 60.0667 22.1091 60.4665 22.4743 60.8774 22.8279 61.4159 23.0049 62.0823 23.0049Z" fill="#333333" transform="matrix(1.0025 0 0 1 6.99998 253.521)"/><path d="M51.3049 11.605 46.9073 11.605 46.9073 26.8216 41.8268 26.8216 41.8268 11.605 39.0283 11.605 39.0283 9.08889 41.8268 7.68533 41.8268 6.28177C41.8268 4.65 42.0932 3.38337 42.6263 2.4819 43.1704 1.56902 43.9311 0.929999 44.9083 0.564846 45.8967 0.188282 47.0628 0 48.4064 0 49.3948 0 50.2943 0.0855829 51.105 0.256748 51.9157 0.416503 52.5763 0.599081 53.0872 0.804478L51.7879 4.6386C51.3992 4.51306 50.9772 4.39895 50.5219 4.29625 50.0666 4.19355 49.5447 4.14221 48.9561 4.14221 48.2453 4.14221 47.7234 4.36472 47.3902 4.80975 47.0682 5.24337 46.9073 5.80251 46.9073 6.48717L46.9073 7.68533 51.3049 7.68533 51.3049 11.605Z" fill="#333333" transform="matrix(1.0025 0 0 1 6.99998 253.521)"/><path d="M36.8129 17.2193C36.8129 18.8168 36.6018 20.2319 36.1798 21.4642 35.7689 22.6967 35.1637 23.7408 34.3641 24.5966 33.5756 25.441 32.6206 26.08 31.4991 26.5136 30.3886 26.9473 29.1337 27.1641 27.7346 27.1641 26.4242 27.1641 25.2193 26.9473 24.1198 26.5136 23.0316 26.08 22.082 25.441 21.2715 24.5966 20.4718 23.7408 19.85 22.6967 19.4058 21.4642 18.9727 20.2319 18.7562 18.8168 18.7562 17.2193 18.7562 15.0969 19.1226 13.2996 19.8556 11.8276 20.5885 10.3556 21.6323 9.23732 22.9871 8.47278 24.3418 7.70824 25.9577 7.32597 27.8345 7.32597 29.5779 7.32597 31.1215 7.70824 32.4651 8.47278 33.8201 9.23732 34.8804 10.3556 35.6468 11.8276 36.4241 13.2996 36.8129 15.0969 36.8129 17.2193ZM23.9367 17.2193C23.9367 18.4746 24.0698 19.5301 24.3364 20.3858 24.6029 21.2418 25.0194 21.8865 25.5857 22.32 26.1521 22.7536 26.8905 22.9705 27.8011 22.9705 28.7006 22.9705 29.428 22.7536 29.9832 22.32 30.5497 21.8865 30.9604 21.2418 31.2159 20.3858 31.4825 19.5301 31.6156 18.4746 31.6156 17.2193 31.6156 15.9527 31.4825 14.9029 31.2159 14.0699 30.9604 13.2255 30.5497 12.5922 29.9832 12.1699 29.4169 11.7477 28.6784 11.5366 27.7678 11.5366 26.4242 11.5366 25.447 12.0102 24.8361 12.9573 24.2365 13.9044 23.9367 15.3251 23.9367 17.2193Z" fill="#333333" transform="matrix(1.0025 0 0 1 6.99998 253.521)"/><path d="M15.8745 19.8718C15.8745 21.3554 15.5247 22.6448 14.8251 23.7403 14.1255 24.8356 13.1038 25.68 11.7601 26.2736 10.4275 26.8669 8.80621 27.1636 6.89617 27.1636 6.05219 27.1636 5.22487 27.1064 4.41422 26.9924 3.61466 26.8783 2.84287 26.7128 2.09883 26.496 1.36591 26.2678 0.666297 25.9882 0 25.6573L0 20.7278C1.15491 21.2526 2.35425 21.7261 3.598 22.1484 4.84176 22.5705 6.07441 22.7818 7.29595 22.7818 8.13992 22.7818 8.81733 22.6675 9.32816 22.4393 9.85008 22.2111 10.2277 21.8973 10.4608 21.4979 10.6941 21.0985 10.8107 20.6421 10.8107 20.1286 10.8107 19.501 10.6052 18.9647 10.1943 18.5196 9.78346 18.0746 9.2171 17.6581 8.49528 17.2702 7.78457 16.8822 6.97946 16.4657 6.07995 16.0207 5.51361 15.7468 4.89729 15.4159 4.23099 15.0279 3.56469 14.6285 2.9317 14.1435 2.33204 13.573 1.73237 13.0024 1.2382 12.3121 0.849528 11.5019 0.47196 10.6803 0.283176 9.69895 0.283176 8.55783 0.283176 7.06299 0.616324 5.78495 1.28262 4.72372 1.94892 3.6625 2.8984 2.85231 4.13103 2.29317 5.3748 1.72262 6.84065 1.43735 8.5286 1.43735 9.79455 1.43735 10.9994 1.5914 12.1432 1.89949 13.2982 2.19618 14.5031 2.6298 15.7579 3.20035L14.0922 7.32544C12.9706 6.85759 11.9656 6.49814 11.0772 6.2471 10.1888 5.98464 9.28372 5.85343 8.36202 5.85343 7.71793 5.85343 7.16825 5.96182 6.71294 6.17863 6.25764 6.38403 5.91339 6.68072 5.68017 7.06869 5.44697 7.44527 5.33036 7.88458 5.33036 8.38668 5.33036 8.98004 5.49694 9.48214 5.8301 9.89292 6.17435 10.2923 6.68518 10.6803 7.36257 11.0569 8.05109 11.4334 8.90617 11.8727 9.92781 12.3748 11.1716 12.9796 12.2321 13.6129 13.1094 14.2748 13.9978 14.9252 14.6807 15.6954 15.1583 16.5855 15.6358 17.4641 15.8745 18.5597 15.8745 19.8718Z" fill="#333333" transform="matrix(1.0025 0 0 1 6.99998 253.521)"/></g></g></g></g></svg>